<svg xmlns="http://www.w3.org/2000/svg" xmlns:xlink="http://www.w3.org/1999/xlink" width="50" zoomAndPan="magnify" viewBox="0 0 37.5 37.499999" height="50" preserveAspectRatio="xMidYMid meet" version="1.0"><defs><clipPath id="435264c1b2"><path d="M 0.300781 14 L 36.566406 14 L 36.566406 37 L 0.300781 37 Z M 0.300781 14 " clip-rule="nonzero"/></clipPath><clipPath id="9abe4bcf19"><path d="M 0.300781 0 L 36.566406 0 L 36.566406 37 L 0.300781 37 Z M 0.300781 0 " clip-rule="nonzero"/></clipPath></defs><g clip-path="url(#435264c1b2)"><path fill="#545454" d="M 36.097656 33.570312 L 36.097656 36.28125 L 16.683594 36.28125 L 16.683594 33.570312 C 16.683594 33.121094 16.796875 32.707031 17.027344 32.320312 C 17.257812 31.9375 17.570312 31.640625 17.964844 31.425781 L 7.582031 31.425781 L 7.582031 30.214844 C 7.582031 30.054688 7.613281 29.898438 7.675781 29.75 C 7.738281 29.601562 7.824219 29.46875 7.9375 29.355469 C 8.050781 29.242188 8.183594 29.15625 8.332031 29.09375 C 8.480469 29.03125 8.632812 29 8.796875 29 L 9.742188 29 C 10.003906 29 10.238281 28.921875 10.453125 28.769531 C 10.664062 28.617188 10.8125 28.417969 10.894531 28.167969 L 11.828125 25.359375 L 3.335938 25.359375 C 3.011719 25.359375 2.703125 25.296875 2.40625 25.175781 C 2.109375 25.050781 1.847656 24.875 1.617188 24.648438 C 1.390625 24.421875 1.214844 24.160156 1.09375 23.863281 C 0.96875 23.5625 0.90625 23.253906 0.90625 22.933594 L 0.90625 21.71875 L 20.929688 21.71875 L 20.929688 19.898438 C 20.929688 19.539062 20.964844 19.183594 21.035156 18.832031 C 21.105469 18.480469 21.207031 18.140625 21.347656 17.808594 C 21.484375 17.476562 21.652344 17.164062 21.851562 16.863281 C 22.050781 16.566406 22.277344 16.289062 22.53125 16.039062 C 22.785156 15.785156 23.058594 15.558594 23.355469 15.359375 C 23.65625 15.160156 23.96875 14.992188 24.300781 14.855469 C 24.632812 14.714844 24.972656 14.613281 25.324219 14.542969 C 25.675781 14.472656 26.03125 14.4375 26.390625 14.4375 C 26.800781 14.4375 27.203125 14.484375 27.605469 14.570312 C 28.207031 14.710938 28.769531 14.945312 29.292969 15.273438 C 29.816406 15.605469 30.269531 16.011719 30.65625 16.496094 C 31.042969 16.980469 31.335938 17.511719 31.542969 18.097656 C 31.746094 18.679688 31.851562 19.28125 31.851562 19.898438 L 31.851562 22.253906 C 31.851562 23.109375 31.640625 23.910156 31.214844 24.65625 L 29.945312 26.871094 C 29.785156 27.152344 29.5625 27.378906 29.28125 27.542969 C 29 27.703125 28.695312 27.785156 28.367188 27.785156 L 24.414062 27.785156 C 24.085938 27.785156 23.78125 27.703125 23.5 27.542969 C 23.21875 27.378906 22.996094 27.152344 22.835938 26.871094 L 21.96875 25.359375 L 16.683594 25.359375 L 17.617188 28.167969 C 17.699219 28.417969 17.847656 28.617188 18.058594 28.769531 C 18.273438 28.921875 18.507812 29 18.769531 29 L 19.714844 29 C 19.878906 29 20.03125 29.03125 20.179688 29.09375 C 20.328125 29.15625 20.460938 29.242188 20.574219 29.355469 C 20.6875 29.46875 20.773438 29.601562 20.835938 29.75 C 20.898438 29.898438 20.929688 30.054688 20.929688 30.214844 L 20.929688 30.894531 L 24.570312 30.4375 L 26.390625 30.214844 L 28.210938 30.4375 L 33.976562 31.160156 C 34.269531 31.195312 34.546875 31.285156 34.808594 31.421875 C 35.070312 31.5625 35.296875 31.742188 35.492188 31.964844 C 35.6875 32.183594 35.839844 32.433594 35.941406 32.710938 C 36.046875 32.988281 36.097656 33.273438 36.097656 33.570312 Z M 36.097656 33.570312 " fill-opacity="1" fill-rule="nonzero"/></g><path fill="#545454" d="M 17.898438 13.832031 L 17.898438 16.257812 L 15.46875 16.257812 L 15.46875 18.683594 L 13.042969 18.683594 L 13.042969 16.257812 L 10.617188 16.257812 L 10.617188 13.832031 L 13.042969 13.832031 L 13.042969 11.402344 L 15.46875 11.402344 L 15.46875 13.832031 Z M 17.898438 13.832031 " fill-opacity="1" fill-rule="nonzero"/><path fill="#545454" d="M 17.289062 8.976562 L 11.222656 8.976562 L 12.3125 7.15625 L 16.199219 7.15625 Z M 17.289062 8.976562 " fill-opacity="1" fill-rule="nonzero"/><path fill="#545454" d="M 17.289062 4.125 C 17.289062 4.515625 17.21875 4.890625 17.070312 5.253906 C 16.925781 5.617188 16.71875 5.9375 16.449219 6.21875 C 16.179688 6.503906 15.863281 6.722656 15.507812 6.886719 C 15.152344 7.046875 14.78125 7.132812 14.390625 7.152344 C 14.492188 7.140625 14.589844 7.117188 14.6875 7.078125 C 14.78125 7.042969 14.871094 6.996094 14.957031 6.9375 C 15.039062 6.875 15.117188 6.808594 15.183594 6.730469 C 15.25 6.652344 15.304688 6.566406 15.347656 6.472656 C 15.394531 6.378906 15.425781 6.285156 15.445312 6.183594 C 15.464844 6.082031 15.472656 5.980469 15.46875 5.878906 C 15.460938 5.773438 15.445312 5.675781 15.414062 5.578125 C 15.382812 5.480469 15.339844 5.386719 15.285156 5.300781 C 15.230469 5.210938 15.164062 5.132812 15.089844 5.0625 C 15.015625 4.992188 14.933594 4.933594 14.84375 4.882812 C 14.753906 4.832031 14.660156 4.796875 14.558594 4.769531 C 14.460938 4.742188 14.359375 4.730469 14.257812 4.730469 C 14.152344 4.730469 14.050781 4.742188 13.953125 4.769531 C 13.851562 4.796875 13.757812 4.832031 13.667969 4.882812 C 13.578125 4.933594 13.496094 4.992188 13.421875 5.0625 C 13.347656 5.132812 13.28125 5.210938 13.226562 5.300781 C 13.171875 5.386719 13.128906 5.480469 13.097656 5.578125 C 13.070312 5.675781 13.050781 5.773438 13.042969 5.878906 C 13.039062 5.980469 13.046875 6.082031 13.066406 6.183594 C 13.085938 6.285156 13.117188 6.378906 13.164062 6.472656 C 13.207031 6.566406 13.261719 6.652344 13.328125 6.730469 C 13.394531 6.808594 13.472656 6.875 13.554688 6.9375 C 13.640625 6.996094 13.730469 7.042969 13.824219 7.078125 C 13.921875 7.117188 14.019531 7.140625 14.121094 7.152344 C 13.722656 7.132812 13.34375 7.039062 12.984375 6.875 C 12.621094 6.707031 12.304688 6.476562 12.035156 6.183594 C 11.761719 5.894531 11.554688 5.558594 11.417969 5.1875 C 11.277344 4.8125 11.210938 4.429688 11.222656 4.03125 C 11.234375 3.632812 11.324219 3.25 11.484375 2.886719 C 11.648438 2.523438 11.871094 2.203125 12.160156 1.925781 C 12.449219 1.652344 12.777344 1.441406 13.148438 1.296875 C 13.519531 1.148438 13.902344 1.082031 14.300781 1.085938 C 14.699219 1.09375 15.082031 1.175781 15.449219 1.332031 C 15.816406 1.488281 16.140625 1.707031 16.417969 1.992188 C 16.699219 2.277344 16.914062 2.601562 17.0625 2.972656 C 17.214844 3.339844 17.289062 3.726562 17.289062 4.125 Z M 17.289062 4.125 " fill-opacity="1" fill-rule="nonzero"/><path fill="#000000" d="M 13.042969 28.394531 L 15.46875 28.394531 L 15.46875 29.605469 L 13.042969 29.605469 Z M 13.042969 28.394531 " fill-opacity="1" fill-rule="nonzero"/><g clip-path="url(#9abe4bcf19)"><path fill="#000000" d="M 34.046875 30.558594 L 28.816406 29.902344 L 28.816406 28.34375 C 29.554688 28.210938 30.105469 27.820312 30.472656 27.167969 L 31.738281 24.960938 C 32.21875 24.121094 32.457031 23.21875 32.457031 22.253906 L 32.457031 19.898438 C 32.457031 19.253906 32.355469 18.625 32.15625 18.011719 C 31.953125 17.398438 31.660156 16.832031 31.28125 16.3125 C 30.898438 15.789062 30.445312 15.34375 29.921875 14.964844 C 29.398438 14.589844 28.828125 14.304688 28.210938 14.109375 L 28.210938 9.585938 C 28.210938 9.183594 28.132812 8.792969 27.980469 8.421875 C 27.828125 8.050781 27.605469 7.722656 27.324219 7.4375 C 27.039062 7.15625 26.710938 6.933594 26.339844 6.78125 C 25.96875 6.628906 25.578125 6.550781 25.175781 6.550781 L 16.960938 6.550781 C 17.277344 6.199219 17.515625 5.800781 17.675781 5.359375 C 17.839844 4.917969 17.910156 4.457031 17.894531 3.988281 C 17.878906 3.515625 17.773438 3.066406 17.582031 2.632812 C 17.390625 2.203125 17.125 1.824219 16.785156 1.496094 C 16.445312 1.167969 16.058594 0.917969 15.621094 0.738281 C 15.183594 0.5625 14.726562 0.472656 14.257812 0.472656 C 13.785156 0.472656 13.328125 0.5625 12.890625 0.738281 C 12.453125 0.917969 12.066406 1.167969 11.726562 1.496094 C 11.386719 1.824219 11.121094 2.203125 10.929688 2.632812 C 10.738281 3.066406 10.632812 3.515625 10.617188 3.988281 C 10.601562 4.457031 10.671875 4.917969 10.835938 5.359375 C 10.996094 5.800781 11.234375 6.199219 11.550781 6.550781 L 3.335938 6.550781 C 2.933594 6.550781 2.546875 6.628906 2.171875 6.78125 C 1.800781 6.933594 1.472656 7.15625 1.1875 7.4375 C 0.90625 7.722656 0.6875 8.050781 0.53125 8.421875 C 0.378906 8.792969 0.300781 9.183594 0.300781 9.585938 L 0.300781 22.933594 C 0.300781 23.335938 0.378906 23.722656 0.53125 24.09375 C 0.6875 24.464844 0.90625 24.792969 1.1875 25.078125 C 1.472656 25.363281 1.800781 25.582031 2.171875 25.734375 C 2.546875 25.890625 2.933594 25.964844 3.335938 25.964844 L 10.984375 25.964844 L 10.316406 27.976562 C 10.226562 28.25 10.035156 28.390625 9.742188 28.394531 L 8.796875 28.394531 C 8.554688 28.394531 8.320312 28.441406 8.097656 28.535156 C 7.875 28.625 7.679688 28.757812 7.507812 28.929688 C 7.339844 29.097656 7.207031 29.296875 7.113281 29.519531 C 7.023438 29.742188 6.976562 29.972656 6.976562 30.214844 L 6.976562 30.820312 L 0.90625 30.820312 C 0.738281 30.820312 0.597656 30.878906 0.476562 31 C 0.359375 31.117188 0.300781 31.257812 0.300781 31.425781 L 0.300781 36.28125 C 0.300781 36.449219 0.359375 36.589844 0.476562 36.710938 C 0.597656 36.828125 0.738281 36.886719 0.90625 36.886719 L 36.097656 36.886719 C 36.265625 36.886719 36.410156 36.828125 36.527344 36.710938 C 36.648438 36.589844 36.707031 36.449219 36.707031 36.28125 L 36.707031 33.570312 C 36.707031 33.199219 36.640625 32.839844 36.507812 32.496094 C 36.378906 32.148438 36.191406 31.839844 35.945312 31.5625 C 35.703125 31.285156 35.414062 31.058594 35.089844 30.886719 C 34.761719 30.714844 34.414062 30.605469 34.046875 30.558594 Z M 31.246094 19.898438 L 31.246094 22.253906 C 31.242188 23.003906 31.058594 23.707031 30.6875 24.359375 L 29.425781 26.566406 C 29.191406 26.972656 28.839844 27.179688 28.367188 27.179688 L 24.414062 27.179688 C 23.945312 27.179688 23.589844 26.972656 23.355469 26.566406 L 22.09375 24.359375 C 21.726562 23.707031 21.539062 23.003906 21.535156 22.253906 L 21.535156 19.898438 C 21.535156 19.582031 21.566406 19.265625 21.628906 18.953125 C 21.691406 18.640625 21.785156 18.335938 21.90625 18.042969 C 22.027344 17.746094 22.179688 17.46875 22.355469 17.203125 C 22.53125 16.9375 22.734375 16.691406 22.957031 16.464844 C 23.183594 16.242188 23.429688 16.039062 23.695312 15.863281 C 23.960938 15.6875 24.238281 15.535156 24.535156 15.414062 C 24.828125 15.292969 25.132812 15.199219 25.445312 15.136719 C 25.757812 15.074219 26.074219 15.042969 26.390625 15.042969 C 26.710938 15.042969 27.027344 15.074219 27.339844 15.136719 C 27.652344 15.199219 27.953125 15.292969 28.25 15.414062 C 28.542969 15.535156 28.824219 15.6875 29.085938 15.863281 C 29.351562 16.039062 29.597656 16.242188 29.824219 16.464844 C 30.046875 16.691406 30.25 16.9375 30.425781 17.203125 C 30.605469 17.46875 30.753906 17.746094 30.875 18.042969 C 30.996094 18.335938 31.089844 18.640625 31.152344 18.953125 C 31.214844 19.265625 31.246094 19.582031 31.246094 19.898438 Z M 27.605469 28.394531 L 27.605469 29.753906 L 26.464844 29.613281 C 26.414062 29.605469 26.367188 29.605469 26.316406 29.613281 L 25.175781 29.753906 L 25.175781 28.394531 Z M 23.964844 28.34375 L 23.964844 29.902344 L 21.535156 30.207031 C 21.535156 29.96875 21.488281 29.734375 21.394531 29.511719 C 21.300781 29.292969 21.171875 29.09375 21 28.925781 C 20.828125 28.753906 20.632812 28.625 20.410156 28.53125 C 20.1875 28.441406 19.957031 28.394531 19.714844 28.394531 L 18.769531 28.394531 C 18.476562 28.390625 18.285156 28.25 18.195312 27.976562 L 17.527344 25.964844 L 21.617188 25.964844 L 22.308594 27.167969 C 22.675781 27.820312 23.226562 28.210938 23.964844 28.34375 Z M 14.257812 1.695312 C 14.734375 1.695312 15.175781 1.824219 15.578125 2.082031 C 15.980469 2.34375 16.277344 2.691406 16.472656 3.128906 C 16.667969 3.566406 16.726562 4.023438 16.652344 4.496094 C 16.578125 4.96875 16.378906 5.382812 16.058594 5.738281 C 16.035156 5.515625 15.96875 5.304688 15.867188 5.105469 C 15.765625 4.90625 15.632812 4.734375 15.464844 4.585938 C 15.300781 4.4375 15.113281 4.320312 14.902344 4.242188 C 14.695312 4.164062 14.480469 4.121094 14.257812 4.121094 C 14.03125 4.121094 13.816406 4.164062 13.609375 4.242188 C 13.398438 4.320312 13.210938 4.4375 13.046875 4.585938 C 12.878906 4.734375 12.746094 4.90625 12.644531 5.105469 C 12.542969 5.304688 12.476562 5.515625 12.453125 5.738281 C 12.132812 5.382812 11.933594 4.96875 11.859375 4.496094 C 11.785156 4.023438 11.84375 3.566406 12.039062 3.128906 C 12.234375 2.691406 12.53125 2.34375 12.933594 2.082031 C 13.335938 1.824219 13.777344 1.695312 14.257812 1.695312 Z M 15.851562 7.765625 L 16.214844 8.371094 L 12.296875 8.371094 L 12.660156 7.765625 Z M 13.648438 5.945312 C 13.648438 5.777344 13.707031 5.632812 13.828125 5.515625 C 13.945312 5.394531 14.089844 5.335938 14.257812 5.335938 C 14.421875 5.335938 14.566406 5.394531 14.683594 5.515625 C 14.804688 5.632812 14.863281 5.777344 14.863281 5.945312 C 14.863281 6.109375 14.804688 6.253906 14.683594 6.371094 C 14.566406 6.492188 14.421875 6.550781 14.257812 6.550781 C 14.089844 6.550781 13.945312 6.492188 13.828125 6.371094 C 13.707031 6.253906 13.648438 6.109375 13.648438 5.945312 Z M 1.515625 9.585938 C 1.515625 9.34375 1.5625 9.109375 1.652344 8.886719 C 1.746094 8.664062 1.878906 8.46875 2.050781 8.296875 C 2.21875 8.128906 2.417969 7.996094 2.640625 7.902344 C 2.863281 7.8125 3.09375 7.765625 3.335938 7.765625 L 11.242188 7.765625 L 10.699219 8.667969 C 10.582031 8.871094 10.578125 9.074219 10.695312 9.277344 C 10.8125 9.480469 10.988281 9.582031 11.222656 9.585938 L 17.289062 9.585938 C 17.523438 9.582031 17.699219 9.480469 17.816406 9.277344 C 17.933594 9.074219 17.929688 8.871094 17.8125 8.667969 L 17.273438 7.765625 L 25.175781 7.765625 C 25.417969 7.765625 25.652344 7.8125 25.875 7.902344 C 26.097656 7.996094 26.292969 8.128906 26.464844 8.296875 C 26.632812 8.46875 26.765625 8.664062 26.859375 8.886719 C 26.949219 9.109375 26.996094 9.34375 26.996094 9.585938 L 26.996094 13.863281 C 26.796875 13.84375 26.597656 13.832031 26.390625 13.832031 C 25.992188 13.832031 25.597656 13.871094 25.207031 13.949219 C 24.816406 14.027344 24.4375 14.144531 24.070312 14.296875 C 23.703125 14.449219 23.351562 14.636719 23.023438 14.855469 C 22.691406 15.078125 22.386719 15.328125 22.105469 15.609375 C 21.820312 15.894531 21.570312 16.199219 21.347656 16.53125 C 21.128906 16.859375 20.941406 17.210938 20.789062 17.578125 C 20.636719 17.945312 20.519531 18.324219 20.441406 18.714844 C 20.363281 19.105469 20.324219 19.5 20.324219 19.898438 L 20.324219 21.113281 L 1.515625 21.113281 Z M 3.335938 24.753906 C 3.09375 24.753906 2.863281 24.707031 2.640625 24.613281 C 2.417969 24.519531 2.21875 24.386719 2.050781 24.21875 C 1.878906 24.046875 1.746094 23.851562 1.652344 23.628906 C 1.5625 23.40625 1.515625 23.171875 1.515625 22.933594 L 1.515625 22.324219 L 20.328125 22.324219 C 20.34375 23.183594 20.546875 23.992188 20.941406 24.753906 Z M 16.078125 33.570312 L 16.078125 35.675781 L 1.515625 35.675781 L 1.515625 32.035156 L 16.5 32.035156 C 16.21875 32.507812 16.078125 33.019531 16.078125 33.570312 Z M 8.1875 30.820312 L 8.1875 30.214844 C 8.1875 30.046875 8.246094 29.902344 8.367188 29.785156 C 8.484375 29.667969 8.628906 29.605469 8.796875 29.605469 L 9.742188 29.605469 C 10.132812 29.605469 10.488281 29.492188 10.804688 29.261719 C 11.125 29.035156 11.34375 28.734375 11.472656 28.363281 L 12.265625 25.964844 L 16.246094 25.964844 L 17.039062 28.363281 C 17.167969 28.734375 17.386719 29.035156 17.707031 29.261719 C 18.023438 29.492188 18.378906 29.605469 18.769531 29.605469 L 19.714844 29.605469 C 19.882812 29.605469 20.027344 29.667969 20.144531 29.785156 C 20.265625 29.902344 20.324219 30.046875 20.324219 30.214844 L 20.324219 30.359375 L 18.734375 30.558594 C 18.425781 30.597656 18.132812 30.683594 17.855469 30.820312 Z M 35.492188 35.675781 L 17.289062 35.675781 L 17.289062 33.570312 C 17.289062 33.347656 17.328125 33.132812 17.410156 32.925781 C 17.488281 32.71875 17.601562 32.53125 17.746094 32.363281 C 17.894531 32.199219 18.066406 32.0625 18.261719 31.957031 C 18.457031 31.855469 18.664062 31.789062 18.886719 31.761719 L 26.390625 30.828125 L 33.898438 31.761719 C 34.117188 31.789062 34.324219 31.855469 34.519531 31.957031 C 34.71875 32.0625 34.886719 32.199219 35.035156 32.363281 C 35.183594 32.53125 35.296875 32.71875 35.375 32.925781 C 35.453125 33.132812 35.492188 33.347656 35.492188 33.570312 Z M 35.492188 35.675781 " fill-opacity="1" fill-rule="nonzero"/></g><path fill="#000000" d="M 10.617188 16.863281 L 12.4375 16.863281 L 12.4375 18.683594 C 12.4375 18.851562 12.496094 18.996094 12.613281 19.113281 C 12.730469 19.234375 12.875 19.292969 13.042969 19.292969 L 15.46875 19.292969 C 15.636719 19.292969 15.78125 19.234375 15.898438 19.113281 C 16.015625 18.996094 16.078125 18.851562 16.078125 18.683594 L 16.078125 16.863281 L 17.898438 16.863281 C 18.0625 16.863281 18.207031 16.804688 18.324219 16.6875 C 18.445312 16.570312 18.503906 16.425781 18.503906 16.257812 L 18.503906 13.832031 C 18.503906 13.664062 18.445312 13.519531 18.324219 13.402344 C 18.207031 13.285156 18.0625 13.222656 17.898438 13.222656 L 16.078125 13.222656 L 16.078125 11.402344 C 16.078125 11.238281 16.015625 11.09375 15.898438 10.976562 C 15.78125 10.855469 15.636719 10.796875 15.46875 10.796875 L 13.042969 10.796875 C 12.875 10.796875 12.730469 10.855469 12.613281 10.976562 C 12.496094 11.09375 12.4375 11.238281 12.4375 11.402344 L 12.4375 13.222656 L 10.617188 13.222656 C 10.449219 13.222656 10.304688 13.285156 10.1875 13.402344 C 10.066406 13.519531 10.007812 13.664062 10.007812 13.832031 L 10.007812 16.257812 C 10.007812 16.425781 10.066406 16.570312 10.1875 16.6875 C 10.304688 16.804688 10.449219 16.863281 10.617188 16.863281 Z M 11.222656 14.4375 L 13.042969 14.4375 C 13.210938 14.4375 13.351562 14.378906 13.472656 14.261719 C 13.589844 14.140625 13.648438 14 13.648438 13.832031 L 13.648438 12.011719 L 14.863281 12.011719 L 14.863281 13.832031 C 14.863281 14 14.921875 14.140625 15.039062 14.261719 C 15.160156 14.378906 15.300781 14.4375 15.46875 14.4375 L 17.289062 14.4375 L 17.289062 15.652344 L 15.46875 15.652344 C 15.300781 15.652344 15.160156 15.710938 15.039062 15.828125 C 14.921875 15.949219 14.863281 16.089844 14.863281 16.257812 L 14.863281 18.078125 L 13.648438 18.078125 L 13.648438 16.257812 C 13.648438 16.089844 13.589844 15.949219 13.472656 15.828125 C 13.351562 15.710938 13.210938 15.652344 13.042969 15.652344 L 11.222656 15.652344 Z M 11.222656 14.4375 " fill-opacity="1" fill-rule="nonzero"/></svg>