<svg xmlns="http://www.w3.org/2000/svg" xmlns:xlink="http://www.w3.org/1999/xlink" width="500" zoomAndPan="magnify" viewBox="0 0 375 374.999991" height="500" preserveAspectRatio="xMidYMid meet" version="1.0"><defs><g/><clipPath id="f327780830"><path d="M 6.410156 95 L 349 95 L 349 257 L 6.410156 257 Z M 6.410156 95 " clip-rule="nonzero"/></clipPath></defs><path fill="#000000" d="M 306.210938 129.136719 C 281.390625 153.730469 238.171875 165.835938 216.46875 170.613281 C 245.011719 157.476562 276.890625 134.613281 303.253906 95.167969 C 303.253906 95.160156 312.816406 106.007812 306.210938 129.136719 Z M 306.210938 129.136719 " fill-opacity="1" fill-rule="nonzero"/><g clip-path="url(#f327780830)"><path fill="#000000" d="M 6.410156 218.765625 C 6.410156 218.765625 34.007812 144.597656 93.792969 135.976562 C 153.589844 127.359375 163.929688 152.070312 231.199219 127.925781 C 231.199219 127.925781 242.695312 164.144531 170.835938 173.339844 C 170.835938 173.339844 163.363281 187.714844 185.785156 187.714844 C 208.207031 187.714844 287.542969 177.695312 342.738281 95.152344 C 342.738281 95.152344 368.605469 124.472656 305.941406 189.433594 C 243.28125 254.398438 163.9375 287.753906 6.410156 218.765625 Z M 6.410156 218.765625 " fill-opacity="1" fill-rule="nonzero"/></g><path fill="#f13223" d="M 249 11.402344 C 237.59375 -0.0078125 219.109375 -0.0078125 207.703125 11.402344 L 192.332031 26.761719 L 176.96875 11.402344 C 165.5625 -0.0078125 147.074219 -0.0078125 135.675781 11.402344 C 129.972656 17.105469 127.128906 24.570312 127.128906 32.042969 C 127.128906 39.519531 129.980469 46.992188 135.675781 52.695312 L 192.339844 109.363281 L 192.347656 109.363281 L 249.015625 52.695312 C 260.40625 41.289062 260.40625 22.796875 249 11.402344 Z M 213.210938 63.835938 L 200.058594 63.835938 L 200.058594 76.988281 L 184.589844 76.988281 L 184.589844 63.835938 L 171.445312 63.835938 L 171.445312 48.367188 L 184.589844 48.367188 L 184.589844 35.222656 L 200.058594 35.222656 L 200.058594 48.375 L 213.210938 48.375 Z M 213.210938 63.835938 " fill-opacity="1" fill-rule="nonzero"/><g fill="#000000" fill-opacity="1"><g transform="translate(57.620897, 329.621689)"><g><path d="M 44.390625 -1.25 C 44.273438 -1.070312 44.003906 -1.03125 43.578125 -1.125 C 43.148438 -1.226562 42.648438 -1.28125 42.078125 -1.28125 C 41.503906 -1.28125 40.695312 -1.164062 39.65625 -0.9375 C 38.613281 -0.707031 36.96875 -0.347656 34.71875 0.140625 C 32.476562 0.640625 30.429688 0.890625 28.578125 0.890625 C 24.398438 0.890625 20.347656 -0.09375 16.421875 -2.0625 C 12.492188 -4.03125 9.351562 -6.820312 7 -10.4375 C 4.644531 -14.0625 3.46875 -18.257812 3.46875 -23.03125 C 3.46875 -27.8125 4.644531 -32.140625 7 -36.015625 C 10.425781 -41.679688 15.597656 -45.375 22.515625 -47.09375 C 24.710938 -47.644531 26.910156 -47.921875 29.109375 -47.921875 C 32.117188 -47.921875 35.695312 -47.414062 39.84375 -46.40625 C 41.09375 -46.09375 42.148438 -45.769531 43.015625 -45.4375 C 43.890625 -45.113281 44.425781 -44.953125 44.625 -44.953125 L 45.609375 -45.21875 L 46.640625 -45.21875 C 46.898438 -45.21875 47.03125 -45.03125 47.03125 -44.65625 L 47.03125 -34.390625 C 47.03125 -34.171875 46.832031 -34.0625 46.4375 -34.0625 C 46.039062 -34.0625 45.804688 -34.109375 45.734375 -34.203125 C 45.671875 -34.304688 45.609375 -34.425781 45.546875 -34.5625 C 45.484375 -34.707031 45.410156 -34.859375 45.328125 -35.015625 C 45.253906 -35.171875 45.175781 -35.3125 45.09375 -35.4375 C 45.019531 -35.570312 44.972656 -35.675781 44.953125 -35.75 C 41.648438 -42.363281 36.644531 -45.671875 29.9375 -45.671875 C 23.882812 -45.671875 19.148438 -43.742188 15.734375 -39.890625 C 12.328125 -36.046875 10.625 -30.945312 10.625 -24.59375 C 10.625 -18.25 12.5 -12.800781 16.25 -8.25 C 20 -3.695312 25.097656 -1.421875 31.546875 -1.421875 C 35.066406 -1.421875 38.273438 -2.460938 41.171875 -4.546875 C 44.066406 -6.640625 46.335938 -9.207031 47.984375 -12.25 C 48.035156 -12.375 48.171875 -12.4375 48.390625 -12.4375 L 48.8125 -12.4375 C 49.03125 -12.4375 49.140625 -12.304688 49.140625 -12.046875 C 49.140625 -11.785156 49.078125 -11.53125 48.953125 -11.28125 Z M 44.390625 -1.25 "/></g></g></g><g fill="#000000" fill-opacity="1"><g transform="translate(107.619304, 329.621689)"><g><path d="M 11.25 -25.546875 C 11.25 -25.015625 11.328125 -24.75 11.484375 -24.75 C 11.640625 -24.75 11.75 -24.785156 11.8125 -24.859375 C 11.882812 -24.941406 12.347656 -25.457031 13.203125 -26.40625 C 15.691406 -29.175781 18.210938 -30.5625 20.765625 -30.5625 C 24.109375 -30.5625 26.5625 -29.8125 28.125 -28.3125 C 30.03125 -26.425781 30.984375 -23.25 30.984375 -18.78125 L 30.984375 -5.015625 C 30.984375 -2.859375 32.175781 -1.601562 34.5625 -1.25 C 35.59375 -1.125 36.109375 -0.894531 36.109375 -0.5625 C 36.109375 -0.226562 36 -0.0390625 35.78125 0 L 21.0625 0 C 20.84375 -0.0390625 20.734375 -0.195312 20.734375 -0.46875 C 20.734375 -0.863281 21.25 -1.125 22.28125 -1.25 C 24.65625 -1.601562 25.84375 -2.859375 25.84375 -5.015625 L 25.84375 -18.453125 C 25.84375 -21.679688 25.613281 -23.78125 25.15625 -24.75 C 24.269531 -26.6875 22.429688 -27.65625 19.640625 -27.65625 C 17.921875 -27.65625 16.09375 -26.921875 14.15625 -25.453125 C 12.21875 -23.992188 11.25 -22.382812 11.25 -20.625 L 11.25 -5.015625 C 11.25 -2.859375 12.4375 -1.601562 14.8125 -1.25 C 15.851562 -1.125 16.375 -0.894531 16.375 -0.5625 C 16.375 -0.226562 16.265625 -0.0390625 16.046875 0 L 1.3125 0 C 1.09375 -0.0390625 0.984375 -0.195312 0.984375 -0.46875 C 0.984375 -0.863281 1.503906 -1.125 2.546875 -1.25 C 4.921875 -1.601562 6.109375 -2.859375 6.109375 -5.015625 L 6.109375 -46.171875 C 6.109375 -47.097656 5.601562 -47.738281 4.59375 -48.09375 C 4.144531 -48.238281 3.664062 -48.359375 3.15625 -48.453125 C 2.65625 -48.554688 2.253906 -48.648438 1.953125 -48.734375 C 1.660156 -48.828125 1.472656 -48.910156 1.390625 -48.984375 C 1.316406 -49.066406 1.28125 -49.234375 1.28125 -49.484375 C 1.28125 -49.742188 1.445312 -49.960938 1.78125 -50.140625 L 10.203125 -54.09375 C 10.460938 -54.226562 10.625 -54.296875 10.6875 -54.296875 C 11.0625 -54.296875 11.25 -54.03125 11.25 -53.5 Z M 11.25 -25.546875 "/></g></g></g><g fill="#000000" fill-opacity="1"><g transform="translate(143.028721, 329.621689)"><g><path d="M 2.3125 0 C 2.09375 -0.0390625 1.984375 -0.195312 1.984375 -0.46875 C 1.984375 -0.863281 2.5 -1.125 3.53125 -1.25 C 5.90625 -1.601562 7.09375 -2.859375 7.09375 -5.015625 L 7.09375 -22.46875 C 7.09375 -23.394531 6.585938 -24.035156 5.578125 -24.390625 C 5.140625 -24.546875 4.664062 -24.671875 4.15625 -24.765625 C 3.65625 -24.867188 3.253906 -24.960938 2.953125 -25.046875 C 2.660156 -25.140625 2.472656 -25.222656 2.390625 -25.296875 C 2.316406 -25.367188 2.28125 -25.53125 2.28125 -25.78125 C 2.28125 -26.039062 2.441406 -26.257812 2.765625 -26.4375 L 11.1875 -30.390625 C 11.445312 -30.523438 11.613281 -30.59375 11.6875 -30.59375 C 12.0625 -30.59375 12.25 -30.328125 12.25 -29.796875 L 12.25 -5.015625 C 12.25 -2.859375 13.4375 -1.601562 15.8125 -1.25 C 16.84375 -1.125 17.359375 -0.894531 17.359375 -0.5625 C 17.359375 -0.226562 17.25 -0.0390625 17.03125 0 Z M 9.1875 -39.875 C 8.28125 -39.875 7.476562 -40.160156 6.78125 -40.734375 C 6.09375 -41.304688 5.75 -42.101562 5.75 -43.125 C 5.75 -44.144531 6.078125 -44.953125 6.734375 -45.546875 C 7.390625 -46.140625 8.175781 -46.4375 9.09375 -46.4375 C 10.007812 -46.4375 10.78125 -46.082031 11.40625 -45.375 C 12.03125 -44.675781 12.34375 -43.921875 12.34375 -43.109375 C 12.34375 -42.296875 12.046875 -41.550781 11.453125 -40.875 C 10.859375 -40.207031 10.101562 -39.875 9.1875 -39.875 Z M 9.1875 -39.875 "/></g></g></g><g fill="#000000" fill-opacity="1"><g transform="translate(160.350438, 329.621689)"><g><path d="M 12.109375 -15.8125 C 11.847656 -15.8125 11.71875 -15.269531 11.71875 -14.1875 L 11.71875 -5.015625 C 11.71875 -2.859375 12.90625 -1.601562 15.28125 -1.25 C 16.3125 -1.125 16.828125 -0.882812 16.828125 -0.53125 C 16.828125 -0.175781 16.71875 0 16.5 0 L 1.78125 0 C 1.5625 -0.0390625 1.453125 -0.195312 1.453125 -0.46875 C 1.453125 -0.863281 1.96875 -1.125 3 -1.25 C 5.375 -1.601562 6.5625 -2.859375 6.5625 -5.015625 L 6.5625 -46.171875 C 6.5625 -47.097656 6.054688 -47.738281 5.046875 -48.09375 C 4.609375 -48.238281 4.132812 -48.359375 3.625 -48.453125 C 3.125 -48.554688 2.722656 -48.648438 2.421875 -48.734375 C 2.128906 -48.828125 1.941406 -48.910156 1.859375 -48.984375 C 1.785156 -49.066406 1.75 -49.234375 1.75 -49.484375 C 1.75 -49.742188 1.914062 -49.960938 2.25 -50.140625 L 10.65625 -54.09375 C 10.925781 -54.226562 11.09375 -54.296875 11.15625 -54.296875 C 11.53125 -54.296875 11.71875 -54.03125 11.71875 -53.5 L 11.71875 -20.5625 C 11.894531 -19.925781 12.125 -19.550781 12.40625 -19.4375 C 12.695312 -19.332031 13.003906 -19.28125 13.328125 -19.28125 C 13.972656 -19.28125 15.023438 -19.78125 16.484375 -20.78125 C 17.953125 -21.78125 19.28125 -22.898438 20.46875 -24.140625 C 21.65625 -25.378906 22.25 -26.234375 22.25 -26.703125 C 22.25 -27.179688 22.035156 -27.484375 21.609375 -27.609375 C 21.191406 -27.734375 20.722656 -27.820312 20.203125 -27.875 C 19.691406 -27.925781 19.226562 -28.007812 18.8125 -28.125 C 18.394531 -28.25 18.1875 -28.539062 18.1875 -29 C 18.1875 -29.46875 18.632812 -29.703125 19.53125 -29.703125 L 32.109375 -29.703125 C 32.878906 -29.703125 33.265625 -29.445312 33.265625 -28.9375 C 33.265625 -28.675781 33.007812 -28.46875 32.5 -28.3125 C 32 -28.164062 31.019531 -27.929688 29.5625 -27.609375 C 28.113281 -27.285156 26.960938 -26.785156 26.109375 -26.109375 L 16.640625 -18.71875 C 16.640625 -18.425781 16.847656 -18.070312 17.265625 -17.65625 L 30.828125 -3.359375 C 31.703125 -2.460938 32.601562 -1.875 33.53125 -1.59375 C 34.457031 -1.320312 35.070312 -1.140625 35.375 -1.046875 C 35.6875 -0.960938 35.84375 -0.8125 35.84375 -0.59375 C 35.84375 -0.195312 35.664062 0 35.3125 0 L 20.828125 0 C 20.609375 0 20.5 -0.128906 20.5 -0.390625 C 20.5 -0.785156 20.773438 -1.039062 21.328125 -1.15625 C 22.972656 -1.46875 23.796875 -2.03125 23.796875 -2.84375 C 23.796875 -3.082031 23.628906 -3.398438 23.296875 -3.796875 C 22.972656 -4.191406 22.664062 -4.578125 22.375 -4.953125 L 12.171875 -15.75 C 12.171875 -15.769531 12.160156 -15.789062 12.140625 -15.8125 Z M 12.109375 -15.8125 "/></g></g></g><g fill="#000000" fill-opacity="1"><g transform="translate(194.835663, 329.621689)"><g><path d="M 2.3125 0 C 2.09375 -0.0390625 1.984375 -0.195312 1.984375 -0.46875 C 1.984375 -0.863281 2.5 -1.125 3.53125 -1.25 C 5.90625 -1.601562 7.09375 -2.859375 7.09375 -5.015625 L 7.09375 -22.46875 C 7.09375 -23.394531 6.585938 -24.035156 5.578125 -24.390625 C 5.140625 -24.546875 4.664062 -24.671875 4.15625 -24.765625 C 3.65625 -24.867188 3.253906 -24.960938 2.953125 -25.046875 C 2.660156 -25.140625 2.472656 -25.222656 2.390625 -25.296875 C 2.316406 -25.367188 2.28125 -25.53125 2.28125 -25.78125 C 2.28125 -26.039062 2.441406 -26.257812 2.765625 -26.4375 L 11.1875 -30.390625 C 11.445312 -30.523438 11.613281 -30.59375 11.6875 -30.59375 C 12.0625 -30.59375 12.25 -30.328125 12.25 -29.796875 L 12.25 -5.015625 C 12.25 -2.859375 13.4375 -1.601562 15.8125 -1.25 C 16.84375 -1.125 17.359375 -0.894531 17.359375 -0.5625 C 17.359375 -0.226562 17.25 -0.0390625 17.03125 0 Z M 9.1875 -39.875 C 8.28125 -39.875 7.476562 -40.160156 6.78125 -40.734375 C 6.09375 -41.304688 5.75 -42.101562 5.75 -43.125 C 5.75 -44.144531 6.078125 -44.953125 6.734375 -45.546875 C 7.390625 -46.140625 8.175781 -46.4375 9.09375 -46.4375 C 10.007812 -46.4375 10.78125 -46.082031 11.40625 -45.375 C 12.03125 -44.675781 12.34375 -43.921875 12.34375 -43.109375 C 12.34375 -42.296875 12.046875 -41.550781 11.453125 -40.875 C 10.859375 -40.207031 10.101562 -39.875 9.1875 -39.875 Z M 9.1875 -39.875 "/></g></g></g><g fill="#000000" fill-opacity="1"><g transform="translate(212.157374, 329.621689)"><g><path d="M 10.328125 -25.375 C 10.191406 -25.375 10.125 -25.273438 10.125 -25.078125 L 10.125 -6.859375 C 10.125 -5.546875 10.414062 -4.515625 11 -3.765625 C 11.582031 -3.015625 12.328125 -2.640625 13.234375 -2.640625 C 14.140625 -2.640625 14.925781 -2.785156 15.59375 -3.078125 C 16.257812 -3.378906 16.84375 -3.707031 17.34375 -4.0625 C 17.84375 -4.414062 18.289062 -4.738281 18.6875 -5.03125 C 19.082031 -5.332031 19.429688 -5.484375 19.734375 -5.484375 C 20.046875 -5.484375 20.203125 -5.40625 20.203125 -5.25 C 20.203125 -4.71875 20.144531 -4.375 20.03125 -4.21875 C 17.394531 -0.8125 14.847656 0.890625 12.390625 0.890625 C 9.941406 0.890625 8.09375 0.113281 6.84375 -1.4375 C 5.601562 -2.988281 4.984375 -4.84375 4.984375 -7 L 4.984375 -25.375 L 2.515625 -25.375 C 1.890625 -25.375 1.5625 -25.570312 1.53125 -25.96875 C 1.5 -26.363281 1.5625 -26.617188 1.71875 -26.734375 C 2.882812 -27.484375 4.488281 -28.828125 6.53125 -30.765625 C 6.75 -31.003906 7.046875 -31.363281 7.421875 -31.84375 C 7.796875 -32.332031 8.335938 -32.992188 9.046875 -33.828125 C 9.765625 -34.660156 10.3125 -35.078125 10.6875 -35.078125 C 11.0625 -35.078125 11.25 -34.925781 11.25 -34.625 C 11.25 -34.582031 10.875 -33.140625 10.125 -30.296875 C 10.125 -29.898438 10.300781 -29.691406 10.65625 -29.671875 L 19.078125 -29.671875 C 20.046875 -29.671875 20.53125 -28.304688 20.53125 -25.578125 C 20.53125 -25.441406 20.441406 -25.375 20.265625 -25.375 Z M 10.328125 -25.375 "/></g></g></g><g fill="#000000" fill-opacity="1"><g transform="translate(231.822577, 329.621689)"><g><path d="M 18.3125 -22.578125 C 18.3125 -22.085938 18.128906 -21.84375 17.765625 -21.84375 C 17.410156 -21.84375 17.132812 -22.109375 16.9375 -22.640625 C 16.40625 -24.085938 15.613281 -25.375 14.5625 -26.5 C 13.519531 -27.625 12.226562 -28.1875 10.6875 -28.1875 C 8.664062 -28.1875 7.300781 -27.175781 6.59375 -25.15625 C 6.375 -24.46875 6.265625 -23.757812 6.265625 -23.03125 C 6.265625 -22.3125 6.726562 -21.503906 7.65625 -20.609375 C 8.582031 -19.722656 10.097656 -18.660156 12.203125 -17.421875 C 14.316406 -16.191406 15.859375 -15.148438 16.828125 -14.296875 C 19.035156 -12.335938 20.140625 -10.066406 20.140625 -7.484375 C 20.140625 -4.910156 19.191406 -2.867188 17.296875 -1.359375 C 15.398438 0.140625 13.195312 0.890625 10.6875 0.890625 C 9.351562 0.890625 8.140625 0.707031 7.046875 0.34375 C 5.953125 -0.0195312 5.320312 -0.203125 5.15625 -0.203125 C 5 -0.203125 4.738281 -0.0195312 4.375 0.34375 C 4.007812 0.707031 3.71875 0.890625 3.5 0.890625 L 2.9375 0.890625 C 2.800781 0.890625 2.632812 -0.296875 2.4375 -2.671875 C 2.238281 -5.046875 2.140625 -6.453125 2.140625 -6.890625 C 2.140625 -7.335938 2.175781 -7.582031 2.25 -7.625 C 2.332031 -7.664062 2.460938 -7.6875 2.640625 -7.6875 C 2.816406 -7.6875 2.960938 -7.628906 3.078125 -7.515625 C 3.203125 -7.410156 3.304688 -7.273438 3.390625 -7.109375 C 3.484375 -6.941406 3.554688 -6.769531 3.609375 -6.59375 C 3.671875 -6.425781 3.8125 -6.097656 4.03125 -5.609375 C 5.519531 -2.421875 7.828125 -0.828125 10.953125 -0.828125 C 12.335938 -0.828125 13.445312 -1.335938 14.28125 -2.359375 C 15.125 -3.378906 15.546875 -4.515625 15.546875 -5.765625 C 15.546875 -7.023438 15.210938 -8.082031 14.546875 -8.9375 C 13.890625 -9.800781 13.070312 -10.582031 12.09375 -11.28125 C 11.113281 -11.988281 10.050781 -12.671875 8.90625 -13.328125 C 4.46875 -15.929688 2.25 -18.804688 2.25 -21.953125 C 2.25 -24.304688 3.257812 -26.332031 5.28125 -28.03125 C 7.300781 -29.738281 9.378906 -30.59375 11.515625 -30.59375 C 13.648438 -30.59375 15.226562 -30.359375 16.25 -29.890625 C 17.28125 -29.429688 17.878906 -29.039062 18.046875 -28.71875 C 18.222656 -28.40625 18.3125 -27.367188 18.3125 -25.609375 Z M 18.3125 -22.578125 "/></g></g></g><g fill="#000000" fill-opacity="1"><g transform="translate(252.742038, 329.621689)"><g><path d="M 22.703125 -5.453125 C 22.703125 -4.878906 22.972656 -4.421875 23.515625 -4.078125 C 24.054688 -3.734375 24.675781 -3.5625 25.375 -3.5625 C 26.082031 -3.5625 26.671875 -3.742188 27.140625 -4.109375 C 27.617188 -4.472656 27.945312 -4.65625 28.125 -4.65625 C 28.300781 -4.65625 28.390625 -4.414062 28.390625 -3.9375 C 28.390625 -3.46875 28.164062 -3.066406 27.71875 -2.734375 C 24.414062 -0.316406 22.1875 0.890625 21.03125 0.890625 C 19.613281 0.890625 18.46875 -0.570312 17.59375 -3.5 C 17.53125 -3.71875 17.472656 -3.816406 17.421875 -3.796875 C 14.691406 -1.742188 12.976562 -0.507812 12.28125 -0.09375 C 10.476562 0.9375 8.664062 1.097656 6.84375 0.390625 C 5.03125 -0.304688 3.71875 -1.472656 2.90625 -3.109375 C 2.507812 -3.941406 2.3125 -4.832031 2.3125 -5.78125 C 2.3125 -7.644531 3.003906 -9.125 4.390625 -10.21875 C 5.773438 -11.320312 8.414062 -12.382812 12.3125 -13.40625 C 13.632812 -13.75 14.8125 -14.195312 15.84375 -14.75 C 16.875 -15.300781 17.414062 -15.65625 17.46875 -15.8125 C 17.53125 -15.96875 17.5625 -16.109375 17.5625 -16.234375 L 17.5625 -22.578125 C 17.5625 -25.066406 16.59375 -26.816406 14.65625 -27.828125 C 14.019531 -28.148438 13.253906 -28.3125 12.359375 -28.3125 C 11.472656 -28.3125 10.570312 -27.957031 9.65625 -27.25 C 8.738281 -26.550781 8.28125 -25.554688 8.28125 -24.265625 L 8.453125 -22.96875 C 8.316406 -22.707031 7.519531 -22.269531 6.0625 -21.65625 C 4.613281 -21.039062 3.78125 -20.707031 3.5625 -20.65625 C 3.207031 -20.65625 3.03125 -21.078125 3.03125 -21.921875 C 3.03125 -22.773438 3.28125 -23.71875 3.78125 -24.75 C 4.289062 -25.789062 5.007812 -26.738281 5.9375 -27.59375 C 8.09375 -29.59375 10.554688 -30.59375 13.328125 -30.59375 C 16.109375 -30.59375 18.363281 -29.828125 20.09375 -28.296875 C 21.832031 -26.765625 22.703125 -24.945312 22.703125 -22.84375 Z M 7.484375 -6.390625 C 7.484375 -5.335938 7.890625 -4.421875 8.703125 -3.640625 C 9.523438 -2.859375 10.457031 -2.46875 11.5 -2.46875 C 12.539062 -2.46875 13.8125 -2.914062 15.3125 -3.8125 C 16.8125 -4.707031 17.5625 -5.625 17.5625 -6.5625 L 17.5625 -13.265625 C 17.5625 -13.503906 17.503906 -13.625 17.390625 -13.625 C 17.285156 -13.625 17.207031 -13.613281 17.15625 -13.59375 L 9.5 -10.03125 C 8.707031 -9.457031 8.171875 -8.972656 7.890625 -8.578125 C 7.617188 -8.179688 7.484375 -7.453125 7.484375 -6.390625 Z M 7.484375 -6.390625 "/></g></g></g><g fill="#000000" fill-opacity="1"><g transform="translate(280.262851, 329.621689)"><g><path d="M 11.25 -25.546875 C 11.25 -25.015625 11.328125 -24.75 11.484375 -24.75 C 11.640625 -24.75 11.75 -24.785156 11.8125 -24.859375 C 11.882812 -24.941406 12.347656 -25.457031 13.203125 -26.40625 C 15.691406 -29.175781 18.210938 -30.5625 20.765625 -30.5625 C 24.109375 -30.5625 26.5625 -29.8125 28.125 -28.3125 C 30.03125 -26.425781 30.984375 -23.25 30.984375 -18.78125 L 30.984375 -5.015625 C 30.984375 -2.859375 32.175781 -1.601562 34.5625 -1.25 C 35.59375 -1.125 36.109375 -0.894531 36.109375 -0.5625 C 36.109375 -0.226562 36 -0.0390625 35.78125 0 L 21.0625 0 C 20.84375 -0.0390625 20.734375 -0.195312 20.734375 -0.46875 C 20.734375 -0.863281 21.25 -1.125 22.28125 -1.25 C 24.65625 -1.601562 25.84375 -2.859375 25.84375 -5.015625 L 25.84375 -18.453125 C 25.84375 -21.679688 25.613281 -23.78125 25.15625 -24.75 C 24.269531 -26.6875 22.429688 -27.65625 19.640625 -27.65625 C 17.921875 -27.65625 16.09375 -26.921875 14.15625 -25.453125 C 12.21875 -23.992188 11.25 -22.382812 11.25 -20.625 L 11.25 -5.015625 C 11.25 -2.859375 12.4375 -1.601562 14.8125 -1.25 C 15.851562 -1.125 16.375 -0.894531 16.375 -0.5625 C 16.375 -0.226562 16.265625 -0.0390625 16.046875 0 L 1.3125 0 C 1.09375 -0.0390625 0.984375 -0.195312 0.984375 -0.46875 C 0.984375 -0.863281 1.503906 -1.125 2.546875 -1.25 C 4.921875 -1.601562 6.109375 -2.859375 6.109375 -5.015625 L 6.109375 -46.171875 C 6.109375 -47.097656 5.601562 -47.738281 4.59375 -48.09375 C 4.144531 -48.238281 3.664062 -48.359375 3.15625 -48.453125 C 2.65625 -48.554688 2.253906 -48.648438 1.953125 -48.734375 C 1.660156 -48.828125 1.472656 -48.910156 1.390625 -48.984375 C 1.316406 -49.066406 1.28125 -49.234375 1.28125 -49.484375 C 1.28125 -49.742188 1.445312 -49.960938 1.78125 -50.140625 L 10.203125 -54.09375 C 10.460938 -54.226562 10.625 -54.296875 10.6875 -54.296875 C 11.0625 -54.296875 11.25 -54.03125 11.25 -53.5 Z M 11.25 -25.546875 "/></g></g></g><g fill="#000000" fill-opacity="1"><g transform="translate(137.411975, 363.022749)"><g><path d="M 25.515625 -23.953125 L 25.515625 0 L 22 0 L 22 -11.5625 C 21.15625 -11.300781 20.3125 -11.125 19.46875 -11.03125 C 18.632812 -10.945312 17.648438 -10.90625 16.515625 -10.90625 C 15.296875 -10.90625 14.015625 -11.015625 12.671875 -11.234375 C 11.328125 -11.453125 10.175781 -11.722656 9.21875 -12.046875 C 8.632812 -11.660156 7.984375 -11.3125 7.265625 -11 C 8.453125 -9.488281 9.847656 -7.9375 11.453125 -6.34375 C 13.054688 -4.75 14.742188 -3.242188 16.515625 -1.828125 L 14.171875 0.515625 C 12.546875 -0.898438 11.015625 -2.332031 9.578125 -3.78125 C 8.148438 -5.226562 6.882812 -6.582031 5.78125 -7.84375 C 4.675781 -9.101562 3.804688 -10.195312 3.171875 -11.125 C 2.535156 -12.019531 2.132812 -12.726562 1.96875 -13.25 C 1.8125 -13.78125 1.734375 -14.289062 1.734375 -14.78125 C 1.734375 -15.332031 1.953125 -15.851562 2.390625 -16.34375 C 2.828125 -16.832031 3.535156 -17.078125 4.515625 -17.078125 C 5.242188 -17.078125 5.875 -16.910156 6.40625 -16.578125 C 6.945312 -16.242188 7.4375 -15.789062 7.875 -15.21875 C 8.476562 -15.769531 8.890625 -16.472656 9.109375 -17.328125 C 9.328125 -18.179688 9.4375 -19.039062 9.4375 -19.90625 C 9.4375 -20.78125 9.367188 -21.5625 9.234375 -22.25 C 9.109375 -22.945312 8.941406 -23.515625 8.734375 -23.953125 L 0 -23.953125 L 0 -27.03125 L 30.03125 -27.03125 L 30.03125 -23.953125 Z M 16.046875 -14 C 17.171875 -14 18.195312 -14.054688 19.125 -14.171875 C 20.050781 -14.285156 21.007812 -14.472656 22 -14.734375 L 22 -23.953125 L 12.21875 -23.953125 C 12.414062 -23.460938 12.585938 -22.882812 12.734375 -22.21875 C 12.878906 -21.550781 12.953125 -20.78125 12.953125 -19.90625 C 12.953125 -18.6875 12.8125 -17.628906 12.53125 -16.734375 C 12.257812 -15.835938 11.878906 -15.082031 11.390625 -14.46875 C 12.898438 -14.15625 14.453125 -14 16.046875 -14 Z M 16.046875 -14 "/></g></g></g><g fill="#000000" fill-opacity="1"><g transform="translate(170.269026, 363.022749)"><g><path d="M 0 -23.953125 L 0 -27.03125 L 30.125 -27.03125 L 30.125 -23.953125 L 25.609375 -23.953125 L 25.609375 0 L 22.078125 0 L 22.078125 -15.4375 C 21.910156 -15.457031 21.707031 -15.46875 21.46875 -15.46875 C 20.78125 -15.46875 20.070312 -15.296875 19.34375 -14.953125 C 18.613281 -14.609375 17.914062 -13.972656 17.25 -13.046875 C 16.582031 -12.117188 15.988281 -10.785156 15.46875 -9.046875 L 12.125 -10.078125 C 12.476562 -11.410156 12.941406 -12.585938 13.515625 -13.609375 C 12.816406 -14.128906 12.117188 -14.546875 11.421875 -14.859375 C 10.734375 -15.179688 9.953125 -15.34375 9.078125 -15.34375 C 7.890625 -15.34375 6.992188 -15.007812 6.390625 -14.34375 C 5.785156 -13.675781 5.484375 -12.820312 5.484375 -11.78125 C 5.484375 -10.675781 5.789062 -9.625 6.40625 -8.625 C 7.03125 -7.625 7.925781 -6.570312 9.09375 -5.46875 C 10.269531 -4.375 11.71875 -3.128906 13.4375 -1.734375 L 11.078125 0.515625 C 9.367188 -0.929688 7.828125 -2.3125 6.453125 -3.625 C 5.078125 -4.945312 3.984375 -6.28125 3.171875 -7.625 C 2.359375 -8.976562 1.953125 -10.421875 1.953125 -11.953125 C 1.953125 -13.484375 2.304688 -14.734375 3.015625 -15.703125 C 3.734375 -16.679688 4.625 -17.394531 5.6875 -17.84375 C 6.757812 -18.289062 7.820312 -18.515625 8.875 -18.515625 C 10.144531 -18.515625 11.304688 -18.300781 12.359375 -17.875 C 13.421875 -17.457031 14.429688 -16.859375 15.390625 -16.078125 C 17.066406 -17.703125 19.164062 -18.515625 21.6875 -18.515625 C 21.832031 -18.515625 21.960938 -18.515625 22.078125 -18.515625 L 22.078125 -23.953125 Z M 0 -23.953125 "/></g></g></g><g fill="#000000" fill-opacity="1"><g transform="translate(199.73606, 363.022749)"><g><path d="M 7.390625 -23.953125 L 7.390625 0 L 3.875 0 L 3.875 -23.953125 L 0 -23.953125 L 0 -27.03125 L 11.859375 -27.03125 L 11.859375 -23.953125 Z M 7.390625 -23.953125 "/></g></g></g><g fill="#000000" fill-opacity="1"><g transform="translate(214.469592, 363.022749)"><g><path d="M 13.953125 -3 C 14.992188 -3.320312 15.847656 -3.742188 16.515625 -4.265625 C 17.179688 -4.785156 17.515625 -5.507812 17.515625 -6.4375 C 17.515625 -7.53125 17.09375 -8.390625 16.25 -9.015625 C 15.414062 -9.640625 14.054688 -9.953125 12.171875 -9.953125 C 10.171875 -9.953125 8.640625 -9.539062 7.578125 -8.71875 C 6.523438 -7.894531 6 -6.785156 6 -5.390625 C 6 -4.492188 6.164062 -3.625 6.5 -2.78125 C 6.832031 -1.9375 7.507812 -1.003906 8.53125 0.015625 C 9.5625 1.046875 11.09375 2.332031 13.125 3.875 L 10.78125 6.171875 C 8.113281 4.117188 6.066406 2.191406 4.640625 0.390625 C 3.222656 -1.398438 2.515625 -3.414062 2.515625 -5.65625 C 2.515625 -6.75 2.738281 -7.722656 3.1875 -8.578125 C 3.644531 -9.441406 4.25 -10.175781 5 -10.78125 C 4.445312 -11.300781 3.972656 -11.9375 3.578125 -12.6875 C 3.191406 -13.445312 3 -14.316406 3 -15.296875 C 3 -16.109375 3.144531 -16.800781 3.4375 -17.375 C 3.726562 -17.957031 4.117188 -18.441406 4.609375 -18.828125 C 5.242188 -19.316406 5.992188 -19.671875 6.859375 -19.890625 C 7.734375 -20.109375 8.765625 -20.21875 9.953125 -20.21875 L 15.6875 -20.21875 L 15.6875 -23.953125 L 0 -23.953125 L 0 -27.03125 L 23.734375 -27.03125 L 23.734375 -23.953125 L 19.21875 -23.953125 L 19.21875 -17.125 L 10 -17.125 C 9.101562 -17.125 8.460938 -17.078125 8.078125 -16.984375 C 7.703125 -16.898438 7.382812 -16.757812 7.125 -16.5625 C 6.695312 -16.21875 6.484375 -15.722656 6.484375 -15.078125 C 6.484375 -14.503906 6.625 -13.988281 6.90625 -13.53125 C 7.195312 -13.082031 7.546875 -12.6875 7.953125 -12.34375 C 9.316406 -12.8125 10.78125 -13.046875 12.34375 -13.046875 C 14.3125 -13.046875 15.929688 -12.738281 17.203125 -12.125 C 18.484375 -11.519531 19.421875 -10.722656 20.015625 -9.734375 C 20.609375 -8.753906 20.90625 -7.726562 20.90625 -6.65625 C 20.90625 -4.945312 20.40625 -3.546875 19.40625 -2.453125 C 18.40625 -1.367188 16.976562 -0.582031 15.125 -0.09375 Z M 13.953125 -3 "/></g></g></g></svg>