<svg xmlns="http://www.w3.org/2000/svg" xmlns:xlink="http://www.w3.org/1999/xlink" width="500" zoomAndPan="magnify" viewBox="0 0 375 374.999991" height="500" preserveAspectRatio="xMidYMid meet" version="1.0"><defs><g/></defs><path fill="#000000" d="M 166.703125 178.6875 C 152.902344 192.363281 128.867188 199.09375 116.800781 201.75 C 132.671875 194.445312 150.398438 181.734375 165.058594 159.800781 C 165.058594 159.796875 170.375 165.828125 166.703125 178.6875 Z M 166.703125 178.6875 " fill-opacity="1" fill-rule="nonzero"/><path fill="#000000" d="M 0 228.523438 C 0 228.523438 15.34375 187.285156 48.589844 182.492188 C 81.835938 177.699219 87.589844 191.441406 124.992188 178.015625 C 124.992188 178.015625 131.382812 198.15625 91.429688 203.269531 C 91.429688 203.269531 87.273438 211.257812 99.738281 211.257812 C 112.207031 211.257812 156.320312 205.691406 187.011719 159.792969 C 187.011719 159.792969 201.394531 176.097656 166.554688 212.21875 C 131.710938 248.339844 87.59375 266.886719 0 228.523438 Z M 0 228.523438 " fill-opacity="1" fill-rule="nonzero"/><path fill="#f13223" d="M 134.890625 113.222656 C 128.546875 106.878906 118.269531 106.878906 111.929688 113.222656 L 103.382812 121.765625 L 94.839844 113.222656 C 88.496094 106.878906 78.214844 106.878906 71.875 113.222656 C 68.707031 116.394531 67.125 120.546875 67.125 124.699219 C 67.125 128.855469 68.710938 133.011719 71.875 136.183594 L 103.386719 167.695312 L 103.390625 167.695312 L 134.898438 136.183594 C 141.234375 129.84375 141.234375 119.558594 134.890625 113.222656 Z M 114.992188 142.378906 L 107.675781 142.378906 L 107.675781 149.691406 L 99.074219 149.691406 L 99.074219 142.378906 L 91.765625 142.378906 L 91.765625 133.777344 L 99.074219 133.777344 L 99.074219 126.46875 L 107.675781 126.46875 L 107.675781 133.78125 L 114.992188 133.78125 Z M 114.992188 142.378906 " fill-opacity="1" fill-rule="nonzero"/><g fill="#000000" fill-opacity="1"><g transform="translate(196.253171, 201.60716)"><g><path d="M 26.953125 -0.765625 C 26.890625 -0.648438 26.726562 -0.625 26.46875 -0.6875 C 26.207031 -0.75 25.898438 -0.78125 25.546875 -0.78125 C 25.203125 -0.78125 24.710938 -0.707031 24.078125 -0.5625 C 23.441406 -0.425781 22.441406 -0.207031 21.078125 0.09375 C 19.722656 0.394531 18.484375 0.546875 17.359375 0.546875 C 14.816406 0.546875 12.351562 -0.0507812 9.96875 -1.25 C 7.582031 -2.445312 5.675781 -4.144531 4.25 -6.34375 C 2.820312 -8.539062 2.109375 -11.085938 2.109375 -13.984375 C 2.109375 -16.890625 2.820312 -19.515625 4.25 -21.859375 C 6.332031 -25.304688 9.472656 -27.550781 13.671875 -28.59375 C 15.003906 -28.9375 16.335938 -29.109375 17.671875 -29.109375 C 19.503906 -29.109375 21.675781 -28.796875 24.1875 -28.171875 C 24.945312 -27.992188 25.59375 -27.800781 26.125 -27.59375 C 26.65625 -27.394531 26.976562 -27.296875 27.09375 -27.296875 L 27.703125 -27.453125 L 28.3125 -27.453125 C 28.476562 -27.453125 28.5625 -27.34375 28.5625 -27.125 L 28.5625 -20.890625 C 28.5625 -20.753906 28.441406 -20.6875 28.203125 -20.6875 C 27.960938 -20.6875 27.820312 -20.710938 27.78125 -20.765625 C 27.738281 -20.828125 27.695312 -20.898438 27.65625 -20.984375 C 27.613281 -21.078125 27.566406 -21.171875 27.515625 -21.265625 C 27.472656 -21.359375 27.425781 -21.441406 27.375 -21.515625 C 27.332031 -21.597656 27.304688 -21.660156 27.296875 -21.703125 C 25.296875 -25.722656 22.253906 -27.734375 18.171875 -27.734375 C 14.503906 -27.734375 11.632812 -26.5625 9.5625 -24.21875 C 7.488281 -21.882812 6.453125 -18.789062 6.453125 -14.9375 C 6.453125 -11.082031 7.585938 -7.769531 9.859375 -5 C 12.140625 -2.238281 15.238281 -0.859375 19.15625 -0.859375 C 21.300781 -0.859375 23.25 -1.492188 25 -2.765625 C 26.757812 -4.035156 28.140625 -5.59375 29.140625 -7.4375 C 29.171875 -7.519531 29.25 -7.5625 29.375 -7.5625 L 29.640625 -7.5625 C 29.773438 -7.5625 29.84375 -7.476562 29.84375 -7.3125 C 29.84375 -7.15625 29.800781 -7.003906 29.71875 -6.859375 Z M 26.953125 -0.765625 "/></g></g></g><g fill="#000000" fill-opacity="1"><g transform="translate(226.613392, 201.60716)"><g><path d="M 6.828125 -15.515625 C 6.828125 -15.191406 6.875 -15.03125 6.96875 -15.03125 C 7.0625 -15.03125 7.128906 -15.050781 7.171875 -15.09375 C 7.210938 -15.144531 7.492188 -15.457031 8.015625 -16.03125 C 9.523438 -17.71875 11.054688 -18.5625 12.609375 -18.5625 C 14.640625 -18.5625 16.128906 -18.109375 17.078125 -17.203125 C 18.234375 -16.046875 18.8125 -14.113281 18.8125 -11.40625 L 18.8125 -3.046875 C 18.8125 -1.734375 19.535156 -0.972656 20.984375 -0.765625 C 21.609375 -0.679688 21.921875 -0.539062 21.921875 -0.34375 C 21.921875 -0.144531 21.851562 -0.03125 21.71875 0 L 12.78125 0 C 12.65625 -0.03125 12.59375 -0.125 12.59375 -0.28125 C 12.59375 -0.519531 12.90625 -0.679688 13.53125 -0.765625 C 14.96875 -0.972656 15.6875 -1.734375 15.6875 -3.046875 L 15.6875 -11.203125 C 15.6875 -13.171875 15.546875 -14.445312 15.265625 -15.03125 C 14.734375 -16.207031 13.617188 -16.796875 11.921875 -16.796875 C 10.878906 -16.796875 9.769531 -16.347656 8.59375 -15.453125 C 7.414062 -14.566406 6.828125 -13.59375 6.828125 -12.53125 L 6.828125 -3.046875 C 6.828125 -1.734375 7.550781 -0.972656 9 -0.765625 C 9.625 -0.679688 9.9375 -0.539062 9.9375 -0.34375 C 9.9375 -0.144531 9.867188 -0.03125 9.734375 0 L 0.796875 0 C 0.660156 -0.03125 0.59375 -0.125 0.59375 -0.28125 C 0.59375 -0.519531 0.910156 -0.679688 1.546875 -0.765625 C 2.984375 -0.972656 3.703125 -1.734375 3.703125 -3.046875 L 3.703125 -28.046875 C 3.703125 -28.597656 3.394531 -28.984375 2.78125 -29.203125 C 2.519531 -29.296875 2.234375 -29.367188 1.921875 -29.421875 C 1.617188 -29.484375 1.375 -29.539062 1.1875 -29.59375 C 1.007812 -29.65625 0.894531 -29.707031 0.84375 -29.75 C 0.800781 -29.800781 0.78125 -29.898438 0.78125 -30.046875 C 0.78125 -30.203125 0.878906 -30.332031 1.078125 -30.4375 L 6.1875 -32.84375 C 6.351562 -32.925781 6.457031 -32.96875 6.5 -32.96875 C 6.71875 -32.96875 6.828125 -32.804688 6.828125 -32.484375 Z M 6.828125 -15.515625 "/></g></g></g><g fill="#000000" fill-opacity="1"><g transform="translate(248.114833, 201.60716)"><g><path d="M 1.40625 0 C 1.269531 -0.03125 1.203125 -0.125 1.203125 -0.28125 C 1.203125 -0.519531 1.515625 -0.679688 2.140625 -0.765625 C 3.585938 -0.972656 4.3125 -1.734375 4.3125 -3.046875 L 4.3125 -13.65625 C 4.3125 -14.207031 4.003906 -14.59375 3.390625 -14.8125 C 3.117188 -14.90625 2.828125 -14.976562 2.515625 -15.03125 C 2.210938 -15.09375 1.96875 -15.148438 1.78125 -15.203125 C 1.601562 -15.265625 1.492188 -15.316406 1.453125 -15.359375 C 1.410156 -15.410156 1.390625 -15.507812 1.390625 -15.65625 C 1.390625 -15.8125 1.488281 -15.941406 1.6875 -16.046875 L 6.796875 -18.453125 C 6.953125 -18.535156 7.050781 -18.578125 7.09375 -18.578125 C 7.320312 -18.578125 7.4375 -18.414062 7.4375 -18.09375 L 7.4375 -3.046875 C 7.4375 -1.734375 8.15625 -0.972656 9.59375 -0.765625 C 10.226562 -0.679688 10.546875 -0.539062 10.546875 -0.34375 C 10.546875 -0.144531 10.476562 -0.03125 10.34375 0 Z M 5.578125 -24.21875 C 5.023438 -24.21875 4.535156 -24.390625 4.109375 -24.734375 C 3.691406 -25.078125 3.484375 -25.5625 3.484375 -26.1875 C 3.484375 -26.8125 3.679688 -27.300781 4.078125 -27.65625 C 4.484375 -28.019531 4.960938 -28.203125 5.515625 -28.203125 C 6.078125 -28.203125 6.546875 -27.988281 6.921875 -27.5625 C 7.304688 -27.132812 7.5 -26.671875 7.5 -26.171875 C 7.5 -25.679688 7.316406 -25.234375 6.953125 -24.828125 C 6.585938 -24.421875 6.128906 -24.21875 5.578125 -24.21875 Z M 5.578125 -24.21875 "/></g></g></g><g fill="#000000" fill-opacity="1"><g transform="translate(258.632991, 201.60716)"><g><path d="M 7.359375 -9.59375 C 7.191406 -9.59375 7.109375 -9.269531 7.109375 -8.625 L 7.109375 -3.046875 C 7.109375 -1.734375 7.832031 -0.972656 9.28125 -0.765625 C 9.90625 -0.679688 10.21875 -0.53125 10.21875 -0.3125 C 10.21875 -0.101562 10.148438 0 10.015625 0 L 1.078125 0 C 0.941406 -0.03125 0.875 -0.125 0.875 -0.28125 C 0.875 -0.519531 1.191406 -0.679688 1.828125 -0.765625 C 3.265625 -0.972656 3.984375 -1.734375 3.984375 -3.046875 L 3.984375 -28.046875 C 3.984375 -28.597656 3.675781 -28.984375 3.0625 -29.203125 C 2.800781 -29.296875 2.515625 -29.367188 2.203125 -29.421875 C 1.898438 -29.484375 1.65625 -29.539062 1.46875 -29.59375 C 1.289062 -29.65625 1.175781 -29.707031 1.125 -29.75 C 1.082031 -29.800781 1.0625 -29.898438 1.0625 -30.046875 C 1.0625 -30.203125 1.160156 -30.332031 1.359375 -30.4375 L 6.46875 -32.84375 C 6.632812 -32.925781 6.738281 -32.96875 6.78125 -32.96875 C 7 -32.96875 7.109375 -32.804688 7.109375 -32.484375 L 7.109375 -12.484375 C 7.222656 -12.097656 7.363281 -11.867188 7.53125 -11.796875 C 7.707031 -11.734375 7.894531 -11.703125 8.09375 -11.703125 C 8.476562 -11.703125 9.113281 -12.003906 10 -12.609375 C 10.894531 -13.222656 11.703125 -13.90625 12.421875 -14.65625 C 13.148438 -15.414062 13.515625 -15.9375 13.515625 -16.21875 C 13.515625 -16.507812 13.382812 -16.691406 13.125 -16.765625 C 12.875 -16.835938 12.59375 -16.890625 12.28125 -16.921875 C 11.96875 -16.953125 11.679688 -17.003906 11.421875 -17.078125 C 11.171875 -17.160156 11.046875 -17.335938 11.046875 -17.609375 C 11.046875 -17.890625 11.316406 -18.03125 11.859375 -18.03125 L 19.5 -18.03125 C 19.96875 -18.03125 20.203125 -17.878906 20.203125 -17.578125 C 20.203125 -17.421875 20.046875 -17.296875 19.734375 -17.203125 C 19.429688 -17.109375 18.835938 -16.960938 17.953125 -16.765625 C 17.078125 -16.566406 16.378906 -16.265625 15.859375 -15.859375 L 10.09375 -11.359375 C 10.09375 -11.191406 10.222656 -10.976562 10.484375 -10.71875 L 18.71875 -2.046875 C 19.25 -1.492188 19.796875 -1.132812 20.359375 -0.96875 C 20.921875 -0.800781 21.296875 -0.691406 21.484375 -0.640625 C 21.671875 -0.585938 21.765625 -0.492188 21.765625 -0.359375 C 21.765625 -0.117188 21.660156 0 21.453125 0 L 12.640625 0 C 12.515625 0 12.453125 -0.078125 12.453125 -0.234375 C 12.453125 -0.472656 12.617188 -0.628906 12.953125 -0.703125 C 13.953125 -0.890625 14.453125 -1.226562 14.453125 -1.71875 C 14.453125 -1.863281 14.347656 -2.054688 14.140625 -2.296875 C 13.941406 -2.546875 13.757812 -2.78125 13.59375 -3 L 7.390625 -9.5625 C 7.390625 -9.570312 7.382812 -9.582031 7.375 -9.59375 Z M 7.359375 -9.59375 "/></g></g></g><g fill="#000000" fill-opacity="1"><g transform="translate(279.57324, 201.60716)"><g><path d="M 1.40625 0 C 1.269531 -0.03125 1.203125 -0.125 1.203125 -0.28125 C 1.203125 -0.519531 1.515625 -0.679688 2.140625 -0.765625 C 3.585938 -0.972656 4.3125 -1.734375 4.3125 -3.046875 L 4.3125 -13.65625 C 4.3125 -14.207031 4.003906 -14.59375 3.390625 -14.8125 C 3.117188 -14.90625 2.828125 -14.976562 2.515625 -15.03125 C 2.210938 -15.09375 1.96875 -15.148438 1.78125 -15.203125 C 1.601562 -15.265625 1.492188 -15.316406 1.453125 -15.359375 C 1.410156 -15.410156 1.390625 -15.507812 1.390625 -15.65625 C 1.390625 -15.8125 1.488281 -15.941406 1.6875 -16.046875 L 6.796875 -18.453125 C 6.953125 -18.535156 7.050781 -18.578125 7.09375 -18.578125 C 7.320312 -18.578125 7.4375 -18.414062 7.4375 -18.09375 L 7.4375 -3.046875 C 7.4375 -1.734375 8.15625 -0.972656 9.59375 -0.765625 C 10.226562 -0.679688 10.546875 -0.539062 10.546875 -0.34375 C 10.546875 -0.144531 10.476562 -0.03125 10.34375 0 Z M 5.578125 -24.21875 C 5.023438 -24.21875 4.535156 -24.390625 4.109375 -24.734375 C 3.691406 -25.078125 3.484375 -25.5625 3.484375 -26.1875 C 3.484375 -26.8125 3.679688 -27.300781 4.078125 -27.65625 C 4.484375 -28.019531 4.960938 -28.203125 5.515625 -28.203125 C 6.078125 -28.203125 6.546875 -27.988281 6.921875 -27.5625 C 7.304688 -27.132812 7.5 -26.671875 7.5 -26.171875 C 7.5 -25.679688 7.316406 -25.234375 6.953125 -24.828125 C 6.585938 -24.421875 6.128906 -24.21875 5.578125 -24.21875 Z M 5.578125 -24.21875 "/></g></g></g><g fill="#000000" fill-opacity="1"><g transform="translate(290.091394, 201.60716)"><g><path d="M 6.265625 -15.40625 C 6.191406 -15.40625 6.15625 -15.347656 6.15625 -15.234375 L 6.15625 -4.171875 C 6.15625 -3.367188 6.332031 -2.738281 6.6875 -2.28125 C 7.039062 -1.832031 7.488281 -1.609375 8.03125 -1.609375 C 8.582031 -1.609375 9.0625 -1.695312 9.46875 -1.875 C 9.875 -2.050781 10.226562 -2.242188 10.53125 -2.453125 C 10.832031 -2.671875 11.101562 -2.867188 11.34375 -3.046875 C 11.582031 -3.234375 11.796875 -3.328125 11.984375 -3.328125 C 12.171875 -3.328125 12.265625 -3.28125 12.265625 -3.1875 C 12.265625 -2.863281 12.234375 -2.65625 12.171875 -2.5625 C 10.566406 -0.488281 9.019531 0.546875 7.53125 0.546875 C 6.039062 0.546875 4.914062 0.078125 4.15625 -0.859375 C 3.40625 -1.804688 3.03125 -2.9375 3.03125 -4.25 L 3.03125 -15.40625 L 1.515625 -15.40625 C 1.148438 -15.40625 0.957031 -15.523438 0.9375 -15.765625 C 0.914062 -16.015625 0.953125 -16.171875 1.046875 -16.234375 C 1.753906 -16.691406 2.726562 -17.503906 3.96875 -18.671875 C 4.101562 -18.828125 4.28125 -19.050781 4.5 -19.34375 C 4.726562 -19.632812 5.0625 -20.035156 5.5 -20.546875 C 5.9375 -21.054688 6.265625 -21.3125 6.484375 -21.3125 C 6.710938 -21.3125 6.828125 -21.21875 6.828125 -21.03125 C 6.828125 -21 6.601562 -20.125 6.15625 -18.40625 C 6.15625 -18.15625 6.257812 -18.023438 6.46875 -18.015625 L 11.578125 -18.015625 C 12.171875 -18.015625 12.46875 -17.1875 12.46875 -15.53125 C 12.46875 -15.445312 12.414062 -15.40625 12.3125 -15.40625 Z M 6.265625 -15.40625 "/></g></g></g><g fill="#000000" fill-opacity="1"><g transform="translate(302.032574, 201.60716)"><g><path d="M 11.125 -13.703125 C 11.125 -13.410156 11.015625 -13.265625 10.796875 -13.265625 C 10.578125 -13.265625 10.40625 -13.425781 10.28125 -13.75 C 9.957031 -14.632812 9.476562 -15.414062 8.84375 -16.09375 C 8.207031 -16.769531 7.425781 -17.109375 6.5 -17.109375 C 5.269531 -17.109375 4.441406 -16.492188 4.015625 -15.265625 C 3.878906 -14.859375 3.8125 -14.429688 3.8125 -13.984375 C 3.8125 -13.546875 4.085938 -13.054688 4.640625 -12.515625 C 5.203125 -11.972656 6.125 -11.328125 7.40625 -10.578125 C 8.695312 -9.828125 9.632812 -9.191406 10.21875 -8.671875 C 11.550781 -7.484375 12.21875 -6.109375 12.21875 -4.546875 C 12.21875 -2.984375 11.644531 -1.742188 10.5 -0.828125 C 9.351562 0.0859375 8.019531 0.546875 6.5 0.546875 C 5.675781 0.546875 4.929688 0.429688 4.265625 0.203125 C 3.609375 -0.015625 3.226562 -0.125 3.125 -0.125 C 3.03125 -0.125 2.875 -0.015625 2.65625 0.203125 C 2.4375 0.429688 2.257812 0.546875 2.125 0.546875 L 1.78125 0.546875 C 1.695312 0.546875 1.59375 -0.171875 1.46875 -1.609375 C 1.351562 -3.054688 1.296875 -3.914062 1.296875 -4.1875 C 1.296875 -4.457031 1.316406 -4.601562 1.359375 -4.625 C 1.410156 -4.65625 1.488281 -4.671875 1.59375 -4.671875 C 1.707031 -4.671875 1.800781 -4.632812 1.875 -4.5625 C 1.945312 -4.5 2.007812 -4.414062 2.0625 -4.3125 C 2.113281 -4.21875 2.15625 -4.113281 2.1875 -4 C 2.226562 -3.894531 2.3125 -3.695312 2.4375 -3.40625 C 3.351562 -1.46875 4.757812 -0.5 6.65625 -0.5 C 7.5 -0.5 8.171875 -0.804688 8.671875 -1.421875 C 9.179688 -2.046875 9.4375 -2.738281 9.4375 -3.5 C 9.4375 -4.269531 9.234375 -4.914062 8.828125 -5.4375 C 8.429688 -5.957031 7.9375 -6.429688 7.34375 -6.859375 C 6.75 -7.285156 6.101562 -7.695312 5.40625 -8.09375 C 2.707031 -9.675781 1.359375 -11.421875 1.359375 -13.328125 C 1.359375 -14.753906 1.972656 -15.984375 3.203125 -17.015625 C 4.429688 -18.054688 5.691406 -18.578125 6.984375 -18.578125 C 8.285156 -18.578125 9.242188 -18.4375 9.859375 -18.15625 C 10.484375 -17.875 10.847656 -17.632812 10.953125 -17.4375 C 11.066406 -17.25 11.125 -16.617188 11.125 -15.546875 Z M 11.125 -13.703125 "/></g></g></g><g fill="#000000" fill-opacity="1"><g transform="translate(314.735368, 201.60716)"><g><path d="M 13.796875 -3.3125 C 13.796875 -2.957031 13.957031 -2.675781 14.28125 -2.46875 C 14.601562 -2.269531 14.976562 -2.171875 15.40625 -2.171875 C 15.832031 -2.171875 16.191406 -2.28125 16.484375 -2.5 C 16.773438 -2.71875 16.972656 -2.828125 17.078125 -2.828125 C 17.179688 -2.828125 17.234375 -2.679688 17.234375 -2.390625 C 17.234375 -2.109375 17.097656 -1.863281 16.828125 -1.65625 C 14.828125 -0.1875 13.472656 0.546875 12.765625 0.546875 C 11.910156 0.546875 11.21875 -0.34375 10.6875 -2.125 C 10.644531 -2.257812 10.609375 -2.320312 10.578125 -2.3125 C 8.921875 -1.0625 7.878906 -0.3125 7.453125 -0.0625 C 6.359375 0.5625 5.257812 0.660156 4.15625 0.234375 C 3.050781 -0.191406 2.253906 -0.898438 1.765625 -1.890625 C 1.523438 -2.390625 1.40625 -2.925781 1.40625 -3.5 C 1.40625 -4.644531 1.820312 -5.550781 2.65625 -6.21875 C 3.5 -6.882812 5.101562 -7.523438 7.46875 -8.140625 C 8.269531 -8.347656 8.984375 -8.617188 9.609375 -8.953125 C 10.242188 -9.285156 10.578125 -9.5 10.609375 -9.59375 C 10.640625 -9.6875 10.65625 -9.773438 10.65625 -9.859375 L 10.65625 -13.703125 C 10.65625 -15.210938 10.070312 -16.273438 8.90625 -16.890625 C 8.507812 -17.097656 8.039062 -17.203125 7.5 -17.203125 C 6.957031 -17.203125 6.410156 -16.984375 5.859375 -16.546875 C 5.304688 -16.117188 5.03125 -15.515625 5.03125 -14.734375 L 5.125 -13.953125 C 5.050781 -13.785156 4.570312 -13.515625 3.6875 -13.140625 C 2.800781 -12.773438 2.296875 -12.578125 2.171875 -12.546875 C 1.953125 -12.546875 1.84375 -12.800781 1.84375 -13.3125 C 1.84375 -13.832031 1.992188 -14.40625 2.296875 -15.03125 C 2.609375 -15.65625 3.046875 -16.226562 3.609375 -16.75 C 4.921875 -17.96875 6.414062 -18.578125 8.09375 -18.578125 C 9.78125 -18.578125 11.148438 -18.113281 12.203125 -17.1875 C 13.265625 -16.257812 13.796875 -15.15625 13.796875 -13.875 Z M 4.546875 -3.875 C 4.546875 -3.238281 4.789062 -2.679688 5.28125 -2.203125 C 5.78125 -1.734375 6.347656 -1.5 6.984375 -1.5 C 7.617188 -1.5 8.390625 -1.769531 9.296875 -2.3125 C 10.203125 -2.851562 10.65625 -3.410156 10.65625 -3.984375 L 10.65625 -8.0625 C 10.65625 -8.207031 10.625 -8.28125 10.5625 -8.28125 C 10.5 -8.28125 10.453125 -8.269531 10.421875 -8.25 L 5.765625 -6.09375 C 5.285156 -5.75 4.960938 -5.453125 4.796875 -5.203125 C 4.628906 -4.960938 4.546875 -4.519531 4.546875 -3.875 Z M 4.546875 -3.875 "/></g></g></g><g fill="#000000" fill-opacity="1"><g transform="translate(331.44666, 201.60716)"><g><path d="M 6.828125 -15.515625 C 6.828125 -15.191406 6.875 -15.03125 6.96875 -15.03125 C 7.0625 -15.03125 7.128906 -15.050781 7.171875 -15.09375 C 7.210938 -15.144531 7.492188 -15.457031 8.015625 -16.03125 C 9.523438 -17.71875 11.054688 -18.5625 12.609375 -18.5625 C 14.640625 -18.5625 16.128906 -18.109375 17.078125 -17.203125 C 18.234375 -16.046875 18.8125 -14.113281 18.8125 -11.40625 L 18.8125 -3.046875 C 18.8125 -1.734375 19.535156 -0.972656 20.984375 -0.765625 C 21.609375 -0.679688 21.921875 -0.539062 21.921875 -0.34375 C 21.921875 -0.144531 21.851562 -0.03125 21.71875 0 L 12.78125 0 C 12.65625 -0.03125 12.59375 -0.125 12.59375 -0.28125 C 12.59375 -0.519531 12.90625 -0.679688 13.53125 -0.765625 C 14.96875 -0.972656 15.6875 -1.734375 15.6875 -3.046875 L 15.6875 -11.203125 C 15.6875 -13.171875 15.546875 -14.445312 15.265625 -15.03125 C 14.734375 -16.207031 13.617188 -16.796875 11.921875 -16.796875 C 10.878906 -16.796875 9.769531 -16.347656 8.59375 -15.453125 C 7.414062 -14.566406 6.828125 -13.59375 6.828125 -12.53125 L 6.828125 -3.046875 C 6.828125 -1.734375 7.550781 -0.972656 9 -0.765625 C 9.625 -0.679688 9.9375 -0.539062 9.9375 -0.34375 C 9.9375 -0.144531 9.867188 -0.03125 9.734375 0 L 0.796875 0 C 0.660156 -0.03125 0.59375 -0.125 0.59375 -0.28125 C 0.59375 -0.519531 0.910156 -0.679688 1.546875 -0.765625 C 2.984375 -0.972656 3.703125 -1.734375 3.703125 -3.046875 L 3.703125 -28.046875 C 3.703125 -28.597656 3.394531 -28.984375 2.78125 -29.203125 C 2.519531 -29.296875 2.234375 -29.367188 1.921875 -29.421875 C 1.617188 -29.484375 1.375 -29.539062 1.1875 -29.59375 C 1.007812 -29.65625 0.894531 -29.707031 0.84375 -29.75 C 0.800781 -29.800781 0.78125 -29.898438 0.78125 -30.046875 C 0.78125 -30.203125 0.878906 -30.332031 1.078125 -30.4375 L 6.1875 -32.84375 C 6.351562 -32.925781 6.457031 -32.96875 6.5 -32.96875 C 6.71875 -32.96875 6.828125 -32.804688 6.828125 -32.484375 Z M 6.828125 -15.515625 "/></g></g></g><g fill="#000000" fill-opacity="1"><g transform="translate(244.704215, 221.889069)"><g><path d="M 15.484375 -14.546875 L 15.484375 0 L 13.359375 0 L 13.359375 -7.015625 C 12.847656 -6.859375 12.335938 -6.753906 11.828125 -6.703125 C 11.316406 -6.648438 10.71875 -6.625 10.03125 -6.625 C 9.289062 -6.625 8.507812 -6.6875 7.6875 -6.8125 C 6.875 -6.945312 6.175781 -7.113281 5.59375 -7.3125 C 5.238281 -7.082031 4.84375 -6.867188 4.40625 -6.671875 C 5.125 -5.753906 5.972656 -4.8125 6.953125 -3.84375 C 7.929688 -2.882812 8.957031 -1.972656 10.03125 -1.109375 L 8.609375 0.3125 C 7.617188 -0.539062 6.6875 -1.40625 5.8125 -2.28125 C 4.945312 -3.164062 4.175781 -3.988281 3.5 -4.75 C 2.832031 -5.519531 2.304688 -6.1875 1.921875 -6.75 C 1.535156 -7.300781 1.296875 -7.734375 1.203125 -8.046875 C 1.109375 -8.367188 1.0625 -8.675781 1.0625 -8.96875 C 1.0625 -9.300781 1.191406 -9.617188 1.453125 -9.921875 C 1.710938 -10.222656 2.144531 -10.375 2.75 -10.375 C 3.1875 -10.375 3.566406 -10.269531 3.890625 -10.0625 C 4.210938 -9.863281 4.507812 -9.585938 4.78125 -9.234375 C 5.144531 -9.566406 5.394531 -9.992188 5.53125 -10.515625 C 5.664062 -11.035156 5.734375 -11.5625 5.734375 -12.09375 C 5.734375 -12.613281 5.691406 -13.082031 5.609375 -13.5 C 5.523438 -13.925781 5.421875 -14.273438 5.296875 -14.546875 L 0 -14.546875 L 0 -16.421875 L 18.234375 -16.421875 L 18.234375 -14.546875 Z M 9.734375 -8.5 C 10.421875 -8.5 11.046875 -8.53125 11.609375 -8.59375 C 12.171875 -8.664062 12.753906 -8.785156 13.359375 -8.953125 L 13.359375 -14.546875 L 7.421875 -14.546875 C 7.535156 -14.242188 7.632812 -13.890625 7.71875 -13.484375 C 7.8125 -13.078125 7.859375 -12.613281 7.859375 -12.09375 C 7.859375 -11.351562 7.773438 -10.707031 7.609375 -10.15625 C 7.441406 -9.613281 7.210938 -9.15625 6.921875 -8.78125 C 7.828125 -8.59375 8.765625 -8.5 9.734375 -8.5 Z M 9.734375 -8.5 "/></g></g></g><g fill="#000000" fill-opacity="1"><g transform="translate(264.655798, 221.889069)"><g><path d="M 0 -14.546875 L 0 -16.421875 L 18.28125 -16.421875 L 18.28125 -14.546875 L 15.546875 -14.546875 L 15.546875 0 L 13.40625 0 L 13.40625 -9.375 C 13.300781 -9.382812 13.175781 -9.390625 13.03125 -9.390625 C 12.613281 -9.390625 12.179688 -9.285156 11.734375 -9.078125 C 11.296875 -8.867188 10.875 -8.484375 10.46875 -7.921875 C 10.070312 -7.359375 9.710938 -6.546875 9.390625 -5.484375 L 7.359375 -6.125 C 7.566406 -6.9375 7.847656 -7.648438 8.203125 -8.265625 C 7.785156 -8.578125 7.363281 -8.828125 6.9375 -9.015625 C 6.519531 -9.210938 6.046875 -9.3125 5.515625 -9.3125 C 4.796875 -9.3125 4.25 -9.109375 3.875 -8.703125 C 3.507812 -8.304688 3.328125 -7.789062 3.328125 -7.15625 C 3.328125 -6.488281 3.515625 -5.847656 3.890625 -5.234375 C 4.265625 -4.628906 4.804688 -3.992188 5.515625 -3.328125 C 6.234375 -2.660156 7.113281 -1.90625 8.15625 -1.0625 L 6.734375 0.3125 C 5.691406 -0.5625 4.753906 -1.398438 3.921875 -2.203125 C 3.085938 -3.003906 2.421875 -3.8125 1.921875 -4.625 C 1.429688 -5.445312 1.1875 -6.320312 1.1875 -7.25 C 1.1875 -8.1875 1.398438 -8.945312 1.828125 -9.53125 C 2.265625 -10.125 2.804688 -10.554688 3.453125 -10.828125 C 4.109375 -11.109375 4.753906 -11.25 5.390625 -11.25 C 6.160156 -11.25 6.863281 -11.117188 7.5 -10.859375 C 8.144531 -10.609375 8.757812 -10.242188 9.34375 -9.765625 C 10.363281 -10.753906 11.640625 -11.25 13.171875 -11.25 C 13.253906 -11.25 13.332031 -11.25 13.40625 -11.25 L 13.40625 -14.546875 Z M 0 -14.546875 "/></g></g></g><g fill="#000000" fill-opacity="1"><g transform="translate(282.548882, 221.889069)"><g><path d="M 4.484375 -14.546875 L 4.484375 0 L 2.34375 0 L 2.34375 -14.546875 L 0 -14.546875 L 0 -16.421875 L 7.203125 -16.421875 L 7.203125 -14.546875 Z M 4.484375 -14.546875 "/></g></g></g><g fill="#000000" fill-opacity="1"><g transform="translate(291.495433, 221.889069)"><g><path d="M 8.46875 -1.828125 C 9.101562 -2.015625 9.625 -2.265625 10.03125 -2.578125 C 10.4375 -2.898438 10.640625 -3.34375 10.640625 -3.90625 C 10.640625 -4.570312 10.382812 -5.09375 9.875 -5.46875 C 9.363281 -5.851562 8.535156 -6.046875 7.390625 -6.046875 C 6.171875 -6.046875 5.238281 -5.796875 4.59375 -5.296875 C 3.957031 -4.796875 3.640625 -4.117188 3.640625 -3.265625 C 3.640625 -2.722656 3.738281 -2.195312 3.9375 -1.6875 C 4.144531 -1.175781 4.5625 -0.609375 5.1875 0.015625 C 5.8125 0.640625 6.738281 1.414062 7.96875 2.34375 L 6.546875 3.75 C 4.921875 2.5 3.675781 1.328125 2.8125 0.234375 C 1.957031 -0.859375 1.53125 -2.082031 1.53125 -3.4375 C 1.53125 -4.101562 1.664062 -4.691406 1.9375 -5.203125 C 2.207031 -5.722656 2.570312 -6.171875 3.03125 -6.546875 C 2.695312 -6.859375 2.410156 -7.242188 2.171875 -7.703125 C 1.941406 -8.160156 1.828125 -8.691406 1.828125 -9.296875 C 1.828125 -9.785156 1.910156 -10.203125 2.078125 -10.546875 C 2.253906 -10.898438 2.492188 -11.191406 2.796875 -11.421875 C 3.179688 -11.722656 3.640625 -11.9375 4.171875 -12.0625 C 4.703125 -12.195312 5.328125 -12.265625 6.046875 -12.265625 L 9.53125 -12.265625 L 9.53125 -14.546875 L 0 -14.546875 L 0 -16.421875 L 14.40625 -16.421875 L 14.40625 -14.546875 L 11.671875 -14.546875 L 11.671875 -10.390625 L 6.0625 -10.390625 C 5.519531 -10.390625 5.132812 -10.363281 4.90625 -10.3125 C 4.675781 -10.257812 4.484375 -10.175781 4.328125 -10.0625 C 4.066406 -9.84375 3.9375 -9.539062 3.9375 -9.15625 C 3.9375 -8.800781 4.019531 -8.488281 4.1875 -8.21875 C 4.363281 -7.945312 4.578125 -7.707031 4.828125 -7.5 C 5.648438 -7.78125 6.539062 -7.921875 7.5 -7.921875 C 8.695312 -7.921875 9.679688 -7.734375 10.453125 -7.359375 C 11.222656 -6.992188 11.785156 -6.507812 12.140625 -5.90625 C 12.503906 -5.3125 12.6875 -4.6875 12.6875 -4.03125 C 12.6875 -3 12.382812 -2.148438 11.78125 -1.484375 C 11.175781 -0.828125 10.3125 -0.347656 9.1875 -0.046875 Z M 8.46875 -1.828125 "/></g></g></g></svg>