<svg xmlns="http://www.w3.org/2000/svg" xmlns:xlink="http://www.w3.org/1999/xlink" width="50" zoomAndPan="magnify" viewBox="0 0 37.5 37.499999" height="50" preserveAspectRatio="xMidYMid meet" version="1.0"><path fill="#272727" d="M 15.085938 2.273438 C 16.726562 0.0078125 20.101562 0.0078125 21.746094 2.273438 C 21.90625 2.5 22.210938 2.570312 22.457031 2.4375 C 24.917969 1.109375 27.960938 2.574219 28.457031 5.328125 C 28.503906 5.601562 28.75 5.792969 29.027344 5.78125 C 31.820312 5.652344 33.925781 8.292969 33.179688 10.988281 C 33.105469 11.257812 33.238281 11.535156 33.496094 11.644531 C 36.070312 12.742188 36.820312 16.035156 34.976562 18.136719 C 34.792969 18.347656 34.792969 18.660156 34.976562 18.867188 C 36.820312 20.972656 36.070312 24.265625 33.496094 25.359375 C 33.238281 25.46875 33.105469 25.75 33.179688 26.019531 C 33.925781 28.714844 31.820312 31.355469 29.027344 31.226562 C 28.75 31.210938 28.503906 31.40625 28.457031 31.679688 C 27.960938 34.433594 24.917969 35.898438 22.457031 34.570312 C 22.210938 34.4375 21.90625 34.507812 21.746094 34.730469 C 20.101562 36.996094 16.726562 36.996094 15.085938 34.730469 C 14.921875 34.507812 14.617188 34.4375 14.375 34.570312 C 11.910156 35.898438 8.871094 34.433594 8.375 31.679688 C 8.324219 31.40625 8.082031 31.210938 7.804688 31.226562 C 5.007812 31.355469 2.902344 28.714844 3.652344 26.019531 C 3.726562 25.75 3.589844 25.46875 3.335938 25.359375 C 0.761719 24.265625 0.0078125 20.972656 1.851562 18.867188 C 2.035156 18.660156 2.035156 18.347656 1.851562 18.136719 C 0.0078125 16.035156 0.761719 12.742188 3.335938 11.644531 C 3.589844 11.535156 3.726562 11.257812 3.652344 10.988281 C 2.902344 8.292969 5.007812 5.652344 7.804688 5.78125 C 8.082031 5.792969 8.324219 5.601562 8.375 5.328125 C 8.871094 2.574219 11.910156 1.109375 14.375 2.4375 C 14.617188 2.570312 14.921875 2.5 15.085938 2.273438 Z M 18.863281 4.363281 C 18.640625 4.058594 18.1875 4.058594 17.964844 4.363281 C 16.757812 6.03125 14.496094 6.546875 12.683594 5.570312 C 12.351562 5.390625 11.941406 5.585938 11.875 5.957031 C 11.511719 7.988281 9.699219 9.429688 7.636719 9.335938 C 7.261719 9.320312 6.980469 9.675781 7.078125 10.039062 C 7.628906 12.023438 6.625 14.113281 4.726562 14.917969 C 4.382812 15.066406 4.28125 15.511719 4.527344 15.792969 C 5.886719 17.34375 5.886719 19.660156 4.527344 21.210938 C 4.28125 21.496094 4.382812 21.9375 4.726562 22.085938 C 6.625 22.894531 7.628906 24.984375 7.078125 26.96875 C 6.980469 27.332031 7.261719 27.6875 7.636719 27.671875 C 9.699219 27.574219 11.511719 29.019531 11.875 31.050781 C 11.941406 31.417969 12.351562 31.617188 12.683594 31.4375 C 14.496094 30.457031 16.757812 30.972656 17.964844 32.644531 C 18.1875 32.949219 18.640625 32.949219 18.863281 32.644531 C 20.074219 30.972656 22.332031 30.457031 24.144531 31.4375 C 24.476562 31.617188 24.886719 31.417969 24.953125 31.050781 C 25.320312 29.019531 27.128906 27.574219 29.191406 27.671875 C 29.566406 27.6875 29.851562 27.332031 29.75 26.96875 C 29.199219 24.984375 30.203125 22.894531 32.101562 22.085938 C 32.449219 21.9375 32.546875 21.496094 32.300781 21.210938 C 30.941406 19.660156 30.941406 17.34375 32.300781 15.792969 C 32.546875 15.511719 32.449219 15.066406 32.101562 14.917969 C 30.203125 14.113281 29.199219 12.023438 29.75 10.039062 C 29.851562 9.675781 29.566406 9.320312 29.191406 9.335938 C 27.128906 9.429688 25.320312 7.988281 24.953125 5.957031 C 24.886719 5.585938 24.476562 5.390625 24.144531 5.570312 C 22.332031 6.546875 20.074219 6.03125 18.863281 4.363281 Z M 18.863281 4.363281 " fill-opacity="1" fill-rule="evenodd"/><path fill="#272727" d="M 26.140625 16.527344 L 18.054688 24.613281 C 17.722656 24.945312 17.269531 25.132812 16.796875 25.132812 C 16.324219 25.132812 15.871094 24.945312 15.539062 24.613281 L 10.6875 19.761719 L 13.203125 17.246094 L 16.796875 20.839844 L 23.625 14.011719 Z M 26.140625 16.527344 " fill-opacity="1" fill-rule="evenodd"/><path fill="#272727" d="M 18.414062 9.769531 C 13.589844 9.769531 9.679688 13.679688 9.679688 18.503906 C 9.679688 23.328125 13.589844 27.238281 18.414062 27.238281 C 23.238281 27.238281 27.148438 23.328125 27.148438 18.503906 C 27.148438 13.679688 23.238281 9.769531 18.414062 9.769531 Z M 6.121094 18.503906 C 6.121094 11.714844 11.625 6.210938 18.414062 6.210938 C 25.203125 6.210938 30.707031 11.714844 30.707031 18.503906 C 30.707031 25.292969 25.203125 30.796875 18.414062 30.796875 C 11.625 30.796875 6.121094 25.292969 6.121094 18.503906 Z M 6.121094 18.503906 " fill-opacity="1" fill-rule="evenodd"/></svg>