<svg xmlns="http://www.w3.org/2000/svg" xmlns:xlink="http://www.w3.org/1999/xlink" width="50" zoomAndPan="magnify" viewBox="0 0 37.5 37.499999" height="50" preserveAspectRatio="xMidYMid meet" version="1.0"><defs><clipPath id="458d2cb7db"><path d="M 6.085938 1.867188 L 37.003906 1.867188 L 37.003906 27.988281 L 6.085938 27.988281 Z M 6.085938 1.867188 " clip-rule="nonzero"/></clipPath><clipPath id="b6e4abb433"><path d="M 6.085938 8.25 L 37.003906 8.25 L 37.003906 9.820312 L 6.085938 9.820312 Z M 6.085938 8.25 " clip-rule="nonzero"/></clipPath><clipPath id="f480d825b1"><path d="M 0.00390625 12 L 22.761719 12 L 22.761719 34.785156 L 0.00390625 34.785156 Z M 0.00390625 12 " clip-rule="nonzero"/></clipPath></defs><g clip-path="url(#458d2cb7db)"><path fill="#212121" d="M 7.628906 11.898438 L 7.628906 4.769531 C 7.628906 4.40625 7.777344 4.078125 8.015625 3.835938 C 8.253906 3.597656 8.585938 3.449219 8.945312 3.449219 L 34.179688 3.449219 C 34.542969 3.449219 34.871094 3.597656 35.109375 3.835938 C 35.351562 4.078125 35.5 4.40625 35.5 4.769531 L 35.5 25.078125 C 35.5 25.441406 35.351562 25.769531 35.109375 26.011719 C 34.871094 26.25 34.542969 26.398438 34.179688 26.398438 L 23.078125 26.398438 C 22.949219 26.914062 22.785156 27.417969 22.589844 27.90625 L 34.179688 27.90625 C 34.957031 27.90625 35.664062 27.589844 36.175781 27.078125 C 36.6875 26.566406 37.003906 25.859375 37.003906 25.078125 L 37.003906 4.769531 C 37.003906 3.992188 36.6875 3.28125 36.175781 2.769531 C 35.664062 2.257812 34.957031 1.941406 34.179688 1.941406 L 8.945312 1.941406 C 8.167969 1.941406 7.460938 2.257812 6.949219 2.769531 C 6.4375 3.28125 6.121094 3.992188 6.121094 4.769531 L 6.121094 12.5 C 6.609375 12.265625 7.113281 12.066406 7.628906 11.898438 " fill-opacity="1" fill-rule="nonzero"/></g><g clip-path="url(#b6e4abb433)"><path fill="#212121" d="M 6.875 8.296875 C 6.457031 8.296875 6.121094 8.632812 6.121094 9.050781 C 6.121094 9.46875 6.457031 9.804688 6.875 9.804688 L 36.25 9.804688 C 36.667969 9.804688 37.003906 9.46875 37.003906 9.050781 C 37.003906 8.632812 36.667969 8.296875 36.25 8.296875 L 6.875 8.296875 " fill-opacity="1" fill-rule="nonzero"/></g><path fill="#212121" d="M 12.523438 0.753906 C 12.523438 0.335938 12.1875 0 11.769531 0 C 11.355469 0 11.019531 0.335938 11.019531 0.753906 L 11.019531 4.523438 C 11.019531 4.941406 11.355469 5.28125 11.769531 5.28125 C 12.1875 5.28125 12.523438 4.941406 12.523438 4.523438 L 12.523438 0.753906 " fill-opacity="1" fill-rule="nonzero"/><path fill="#212121" d="M 19.050781 0.753906 C 19.050781 0.335938 18.714844 0 18.300781 0 C 17.882812 0 17.546875 0.335938 17.546875 0.753906 L 17.546875 4.523438 C 17.546875 4.941406 17.882812 5.28125 18.300781 5.28125 C 18.714844 5.28125 19.050781 4.941406 19.050781 4.523438 L 19.050781 0.753906 " fill-opacity="1" fill-rule="nonzero"/><path fill="#212121" d="M 25.582031 0.753906 C 25.582031 0.335938 25.242188 0 24.828125 0 C 24.410156 0 24.074219 0.335938 24.074219 0.753906 L 24.074219 4.523438 C 24.074219 4.941406 24.410156 5.28125 24.828125 5.28125 C 25.242188 5.28125 25.582031 4.941406 25.582031 4.523438 L 25.582031 0.753906 " fill-opacity="1" fill-rule="nonzero"/><path fill="#212121" d="M 32.109375 0.753906 C 32.109375 0.335938 31.769531 0 31.355469 0 C 30.941406 0 30.601562 0.335938 30.601562 0.753906 L 30.601562 4.523438 C 30.601562 4.941406 30.941406 5.28125 31.355469 5.28125 C 31.769531 5.28125 32.109375 4.941406 32.109375 4.523438 L 32.109375 0.753906 " fill-opacity="1" fill-rule="nonzero"/><g clip-path="url(#f480d825b1)"><path fill="#212121" d="M 11.347656 12.070312 C 14.480469 12.070312 17.316406 13.339844 19.371094 15.394531 C 21.421875 17.449219 22.691406 20.289062 22.691406 23.425781 C 22.691406 26.5625 21.421875 29.402344 19.371094 31.460938 C 17.316406 33.515625 14.480469 34.785156 11.347656 34.785156 L 11.347656 33.277344 C 14.066406 33.277344 16.523438 32.175781 18.304688 30.394531 C 20.085938 28.609375 21.1875 26.148438 21.1875 23.425781 C 21.1875 20.707031 20.085938 18.246094 18.304688 16.460938 C 16.523438 14.679688 14.066406 13.578125 11.347656 13.578125 Z M 11.347656 12.070312 L 11.347656 13.578125 C 8.632812 13.578125 6.171875 14.679688 4.394531 16.460938 C 2.613281 18.246094 1.511719 20.707031 1.511719 23.425781 C 1.511719 26.148438 2.613281 28.609375 4.394531 30.394531 C 6.171875 32.175781 8.632812 33.277344 11.347656 33.277344 L 11.347656 34.785156 C 8.21875 34.785156 5.382812 33.515625 3.328125 31.460938 C 1.273438 29.402344 0.00390625 26.5625 0.00390625 23.425781 C 0.00390625 20.289062 1.273438 17.449219 3.328125 15.394531 C 5.382812 13.339844 8.21875 12.070312 11.347656 12.070312 " fill-opacity="1" fill-rule="nonzero"/></g><path fill="#212121" d="M 31.59375 11.304688 L 33.097656 11.304688 C 33.308594 11.304688 33.476562 11.472656 33.476562 11.679688 L 33.476562 14.78125 C 33.476562 14.988281 33.308594 15.160156 33.097656 15.160156 L 31.59375 15.160156 L 31.59375 14.40625 L 32.722656 14.40625 L 32.722656 12.058594 L 31.59375 12.058594 Z M 30.085938 11.304688 L 31.59375 11.304688 L 31.59375 12.058594 L 30.460938 12.058594 L 30.460938 14.40625 L 31.59375 14.40625 L 31.59375 15.160156 L 30.085938 15.160156 C 29.878906 15.160156 29.710938 14.988281 29.710938 14.78125 L 29.710938 11.679688 C 29.710938 11.472656 29.878906 11.304688 30.085938 11.304688 " fill-opacity="1" fill-rule="nonzero"/><path fill="#212121" d="M 25.707031 11.304688 L 27.210938 11.304688 C 27.421875 11.304688 27.589844 11.472656 27.589844 11.679688 L 27.589844 14.78125 C 27.589844 14.988281 27.421875 15.160156 27.210938 15.160156 L 25.707031 15.160156 L 25.707031 14.40625 L 26.835938 14.40625 L 26.835938 12.058594 L 25.707031 12.058594 Z M 24.199219 11.304688 L 25.707031 11.304688 L 25.707031 12.058594 L 24.578125 12.058594 L 24.578125 14.40625 L 25.707031 14.40625 L 25.707031 15.160156 L 24.199219 15.160156 C 23.992188 15.160156 23.824219 14.988281 23.824219 14.78125 L 23.824219 11.679688 C 23.824219 11.472656 23.992188 11.304688 24.199219 11.304688 " fill-opacity="1" fill-rule="nonzero"/><path fill="#212121" d="M 31.59375 16.125 L 33.097656 16.125 C 33.308594 16.125 33.476562 16.292969 33.476562 16.5 L 33.476562 19.601562 C 33.476562 19.808594 33.308594 19.980469 33.097656 19.980469 L 31.59375 19.980469 L 31.59375 19.226562 L 32.722656 19.226562 L 32.722656 16.878906 L 31.59375 16.878906 Z M 30.085938 16.125 L 31.59375 16.125 L 31.59375 16.878906 L 30.460938 16.878906 L 30.460938 19.226562 L 31.59375 19.226562 L 31.59375 19.980469 L 30.085938 19.980469 C 29.878906 19.980469 29.710938 19.808594 29.710938 19.601562 L 29.710938 16.5 C 29.710938 16.292969 29.878906 16.125 30.085938 16.125 " fill-opacity="1" fill-rule="nonzero"/><path fill="#212121" d="M 25.707031 16.125 L 27.210938 16.125 C 27.421875 16.125 27.589844 16.292969 27.589844 16.5 L 27.589844 19.601562 C 27.589844 19.808594 27.421875 19.980469 27.210938 19.980469 L 25.707031 19.980469 L 25.707031 19.226562 L 26.835938 19.226562 L 26.835938 16.878906 L 25.707031 16.878906 Z M 24.199219 16.125 L 25.707031 16.125 L 25.707031 16.878906 L 24.578125 16.878906 L 24.578125 19.226562 L 25.707031 19.226562 L 25.707031 19.980469 L 24.199219 19.980469 C 23.992188 19.980469 23.824219 19.808594 23.824219 19.601562 L 23.824219 16.5 C 23.824219 16.292969 23.992188 16.125 24.199219 16.125 " fill-opacity="1" fill-rule="nonzero"/><path fill="#212121" d="M 31.59375 20.945312 L 33.097656 20.945312 C 33.308594 20.945312 33.476562 21.113281 33.476562 21.320312 L 33.476562 24.421875 C 33.476562 24.632812 33.308594 24.800781 33.097656 24.800781 L 31.59375 24.800781 L 31.59375 24.046875 L 32.722656 24.046875 L 32.722656 21.699219 L 31.59375 21.699219 Z M 30.085938 20.945312 L 31.59375 20.945312 L 31.59375 21.699219 L 30.460938 21.699219 L 30.460938 24.046875 L 31.59375 24.046875 L 31.59375 24.800781 L 30.085938 24.800781 C 29.878906 24.800781 29.710938 24.632812 29.710938 24.421875 L 29.710938 21.320312 C 29.710938 21.113281 29.878906 20.945312 30.085938 20.945312 " fill-opacity="1" fill-rule="nonzero"/><path fill="#212121" d="M 25.707031 20.945312 L 27.210938 20.945312 C 27.421875 20.945312 27.589844 21.113281 27.589844 21.320312 L 27.589844 24.421875 C 27.589844 24.632812 27.421875 24.800781 27.210938 24.800781 L 25.707031 24.800781 L 25.707031 24.046875 L 26.835938 24.046875 L 26.835938 21.699219 L 25.707031 21.699219 Z M 24.199219 20.945312 L 25.707031 20.945312 L 25.707031 21.699219 L 24.578125 21.699219 L 24.578125 24.046875 L 25.707031 24.046875 L 25.707031 24.800781 L 24.199219 24.800781 C 23.992188 24.800781 23.824219 24.632812 23.824219 24.421875 L 23.824219 21.320312 C 23.824219 21.113281 23.992188 20.945312 24.199219 20.945312 " fill-opacity="1" fill-rule="nonzero"/><path fill="#212121" d="M 12.148438 15.839844 C 12.148438 15.421875 11.8125 15.085938 11.394531 15.085938 C 10.976562 15.085938 10.640625 15.421875 10.640625 15.839844 L 10.640625 23.382812 C 10.640625 23.796875 10.976562 24.136719 11.394531 24.136719 C 11.8125 24.136719 12.148438 23.796875 12.148438 23.382812 L 12.148438 15.839844 " fill-opacity="1" fill-rule="nonzero"/><path fill="#212121" d="M 11.867188 22.796875 C 11.546875 22.535156 11.074219 22.585938 10.8125 22.90625 C 10.550781 23.230469 10.597656 23.703125 10.921875 23.964844 L 15.015625 27.289062 C 15.339844 27.550781 15.8125 27.503906 16.074219 27.183594 C 16.335938 26.859375 16.285156 26.386719 15.964844 26.125 L 11.867188 22.796875 " fill-opacity="1" fill-rule="nonzero"/></svg>