<svg xmlns="http://www.w3.org/2000/svg" xmlns:xlink="http://www.w3.org/1999/xlink" width="50" zoomAndPan="magnify" viewBox="0 0 37.5 37.499999" height="50" preserveAspectRatio="xMidYMid meet" version="1.0"><defs><clipPath id="b457cf6640"><path d="M 0 0 L 37 0 L 37 37.007812 L 0 37.007812 Z M 0 0 " clip-rule="nonzero"/></clipPath></defs><path fill="#2e2d2d" d="M 7.089844 20.527344 L 5.988281 21.523438 L 5.988281 22.730469 L 12.019531 22.730469 L 12.019531 21.09375 L 8.816406 21.09375 L 8.816406 21.066406 L 9.597656 20.410156 C 10.828125 19.308594 11.863281 18.167969 11.863281 16.738281 C 11.863281 15.191406 10.800781 14.066406 8.878906 14.066406 C 7.730469 14.066406 6.734375 14.457031 6.09375 14.945312 L 6.65625 16.375 C 7.101562 16.03125 7.742188 15.664062 8.472656 15.664062 C 9.457031 15.664062 9.875 16.214844 9.875 16.910156 C 9.847656 17.90625 8.945312 18.863281 7.089844 20.527344 " fill-opacity="1" fill-rule="nonzero"/><path fill="#2e2d2d" d="M 14.855469 19.203125 L 14.855469 19.179688 L 15.992188 17.316406 C 16.28125 16.78125 16.503906 16.28125 16.777344 15.730469 L 16.832031 15.730469 C 16.792969 16.28125 16.765625 16.804688 16.765625 17.316406 L 16.765625 19.203125 Z M 18.648438 22.730469 L 18.648438 20.699219 L 19.667969 20.699219 L 19.667969 19.203125 L 18.648438 19.203125 L 18.648438 14.210938 L 16.214844 14.210938 L 13 19.402344 L 13 20.699219 L 16.765625 20.699219 L 16.765625 22.730469 L 18.648438 22.730469 " fill-opacity="1" fill-rule="nonzero"/><path fill="#2e2d2d" d="M 21.484375 23.253906 L 24.285156 13.75 L 22.964844 13.75 L 20.164062 23.253906 L 21.484375 23.253906 " fill-opacity="1" fill-rule="nonzero"/><path fill="#2e2d2d" d="M 25.316406 22.730469 L 27.421875 22.730469 L 30.925781 15.46875 L 30.925781 14.210938 L 24.925781 14.210938 L 24.925781 15.847656 L 28.824219 15.847656 L 28.824219 15.875 L 25.316406 22.730469 " fill-opacity="1" fill-rule="nonzero"/><g clip-path="url(#b457cf6640)"><path fill="#2e2d2d" d="M 36.902344 17.757812 L 33.636719 17.890625 C 33.804688 22.125 32.1875 26.273438 29.199219 29.269531 C 23.277344 35.207031 13.640625 35.207031 7.71875 29.269531 C 1.796875 23.332031 1.796875 13.671875 7.71875 7.734375 C 13.640625 1.796875 23.277344 1.796875 29.199219 7.734375 L 27.460938 9.476562 L 33.246094 9.476562 L 33.246094 3.675781 L 31.511719 5.417969 C 28.023438 1.925781 23.390625 0 18.457031 0 C 13.527344 0 8.894531 1.925781 5.40625 5.417969 C 1.921875 8.914062 0.00390625 13.5625 0.00390625 18.503906 C 0.00390625 23.445312 1.921875 28.09375 5.40625 31.585938 C 8.894531 35.082031 13.527344 37.007812 18.457031 37.007812 C 23.390625 37.007812 28.023438 35.082031 31.511719 31.585938 C 33.363281 29.726562 34.773438 27.550781 35.703125 25.113281 C 36.597656 22.761719 37 20.285156 36.902344 17.757812 " fill-opacity="1" fill-rule="nonzero"/></g></svg>